<svg width="119" height="131" viewBox="0 0 119 131" fill="none" xmlns="http://www.w3.org/2000/svg">
<g filter="url(#filter0_d_4930_2773)">
<path fill-rule="evenodd" clip-rule="evenodd" d="M14.6252 1.8374C8.28864 1.8374 3.15186 6.97419 3.15186 13.3107V23.5782H101.552V13.3107C101.552 6.97419 96.4162 1.8374 90.0791 1.8374H14.6252ZM101.552 28.9325H3.15186V114.276C3.15186 120.613 8.28864 125.75 14.6252 125.75H90.0791C96.4162 125.75 101.552 120.613 101.552 114.276V28.9325Z" fill="url(#paint0_linear_4930_2773)"/>
</g>
<g filter="url(#filter1_d_4930_2773)">
<path d="M14.8232 58.4395H82.1335" stroke="white" stroke-width="3.05956" stroke-linecap="round"/>
</g>
<g filter="url(#filter2_d_4930_2773)">
<path d="M14.8232 76.7964H82.1335" stroke="white" stroke-width="3.05956" stroke-linecap="round"/>
</g>
<g filter="url(#filter3_d_4930_2773)">
<path d="M15.5879 95.1538H53.0675" stroke="white" stroke-width="3.05956" stroke-linecap="round"/>
</g>
<g filter="url(#filter4_ddf_4930_2773)">
<path fill-rule="evenodd" clip-rule="evenodd" d="M87.7533 34.532C83.8929 32.3145 81.358 36.7265 81.358 36.7265L53.4577 85.3243C53.4577 85.3243 50.4126 96.1268 51.9658 96.8573C53.5189 97.5877 61.3309 89.7767 61.3309 89.7767L89.0788 41.1614C89.0788 41.1614 91.6137 36.7496 87.7533 34.532Z" fill="url(#paint1_linear_4930_2773)"/>
</g>
<path d="M107.757 88.27H79.4561C73.3308 88.27 68.3652 93.2356 68.3652 99.3609C68.3652 105.486 73.3308 110.452 79.4561 110.452H107.757C113.882 110.452 118.848 105.486 118.848 99.3609C118.848 93.2356 113.882 88.27 107.757 88.27Z" fill="url(#paint2_linear_4930_2773)"/>
<path d="M107.757 88.6523H79.456C73.5419 88.6523 68.7476 93.4467 68.7476 99.3608C68.7476 105.275 73.5419 110.069 79.456 110.069H107.757C113.671 110.069 118.465 105.275 118.465 99.3608C118.465 93.4467 113.671 88.6523 107.757 88.6523Z" stroke="url(#paint3_linear_4930_2773)" stroke-width="0.76489"/>
<g filter="url(#filter5_d_4930_2773)">
<path d="M80.6035 102.803C82.2933 102.803 83.6631 101.433 83.6631 99.7432C83.6631 98.0534 82.2933 96.6836 80.6035 96.6836C78.9138 96.6836 77.5439 98.0534 77.5439 99.7432C77.5439 101.433 78.9138 102.803 80.6035 102.803Z" fill="white"/>
</g>
<g filter="url(#filter6_d_4930_2773)">
<path d="M106.61 102.803C108.3 102.803 109.669 101.433 109.669 99.7432C109.669 98.0534 108.3 96.6836 106.61 96.6836C104.92 96.6836 103.55 98.0534 103.55 99.7432C103.55 101.433 104.92 102.803 106.61 102.803Z" fill="white"/>
</g>
<g filter="url(#filter7_d_4930_2773)">
<path d="M93.6069 102.803C95.2967 102.803 96.6665 101.433 96.6665 99.7432C96.6665 98.0534 95.2967 96.6836 93.6069 96.6836C91.9172 96.6836 90.5474 98.0534 90.5474 99.7432C90.5474 101.433 91.9172 102.803 93.6069 102.803Z" fill="white"/>
</g>
<defs>
<filter id="filter0_d_4930_2773" x="0.0922971" y="0.307623" width="104.52" height="130.031" filterUnits="userSpaceOnUse" color-interpolation-filters="sRGB">
<feFlood flood-opacity="0" result="BackgroundImageFix"/>
<feColorMatrix in="SourceAlpha" type="matrix" values="0 0 0 0 0 0 0 0 0 0 0 0 0 0 0 0 0 0 127 0" result="hardAlpha"/>
<feOffset dy="1.52978"/>
<feGaussianBlur stdDeviation="1.52978"/>
<feComposite in2="hardAlpha" operator="out"/>
<feColorMatrix type="matrix" values="0 0 0 0 0.298039 0 0 0 0 0.454902 0 0 0 0 1 0 0 0 0.25 0"/>
<feBlend mode="normal" in2="BackgroundImageFix" result="effect1_dropShadow_4930_2773"/>
<feBlend mode="normal" in="SourceGraphic" in2="effect1_dropShadow_4930_2773" result="shape"/>
</filter>
<filter id="filter1_d_4930_2773" x="10.2339" y="55.3799" width="76.4887" height="9.17869" filterUnits="userSpaceOnUse" color-interpolation-filters="sRGB">
<feFlood flood-opacity="0" result="BackgroundImageFix"/>
<feColorMatrix in="SourceAlpha" type="matrix" values="0 0 0 0 0 0 0 0 0 0 0 0 0 0 0 0 0 0 127 0" result="hardAlpha"/>
<feOffset dy="1.52978"/>
<feGaussianBlur stdDeviation="1.52978"/>
<feComposite in2="hardAlpha" operator="out"/>
<feColorMatrix type="matrix" values="0 0 0 0 0.298039 0 0 0 0 0.454902 0 0 0 0 1 0 0 0 0.25 0"/>
<feBlend mode="normal" in2="BackgroundImageFix" result="effect1_dropShadow_4930_2773"/>
<feBlend mode="normal" in="SourceGraphic" in2="effect1_dropShadow_4930_2773" result="shape"/>
</filter>
<filter id="filter2_d_4930_2773" x="10.2339" y="73.7368" width="76.4887" height="9.17869" filterUnits="userSpaceOnUse" color-interpolation-filters="sRGB">
<feFlood flood-opacity="0" result="BackgroundImageFix"/>
<feColorMatrix in="SourceAlpha" type="matrix" values="0 0 0 0 0 0 0 0 0 0 0 0 0 0 0 0 0 0 127 0" result="hardAlpha"/>
<feOffset dy="1.52978"/>
<feGaussianBlur stdDeviation="1.52978"/>
<feComposite in2="hardAlpha" operator="out"/>
<feColorMatrix type="matrix" values="0 0 0 0 0.298039 0 0 0 0 0.454902 0 0 0 0 1 0 0 0 0.25 0"/>
<feBlend mode="normal" in2="BackgroundImageFix" result="effect1_dropShadow_4930_2773"/>
<feBlend mode="normal" in="SourceGraphic" in2="effect1_dropShadow_4930_2773" result="shape"/>
</filter>
<filter id="filter3_d_4930_2773" x="10.9985" y="92.0942" width="46.6582" height="9.17869" filterUnits="userSpaceOnUse" color-interpolation-filters="sRGB">
<feFlood flood-opacity="0" result="BackgroundImageFix"/>
<feColorMatrix in="SourceAlpha" type="matrix" values="0 0 0 0 0 0 0 0 0 0 0 0 0 0 0 0 0 0 127 0" result="hardAlpha"/>
<feOffset dy="1.52978"/>
<feGaussianBlur stdDeviation="1.52978"/>
<feComposite in2="hardAlpha" operator="out"/>
<feColorMatrix type="matrix" values="0 0 0 0 0.298039 0 0 0 0 0.454902 0 0 0 0 1 0 0 0 0.25 0"/>
<feBlend mode="normal" in2="BackgroundImageFix" result="effect1_dropShadow_4930_2773"/>
<feBlend mode="normal" in="SourceGraphic" in2="effect1_dropShadow_4930_2773" result="shape"/>
</filter>
<filter id="filter4_ddf_4930_2773" x="43.8755" y="29.3194" width="53.6694" height="78.2944" filterUnits="userSpaceOnUse" color-interpolation-filters="sRGB">
<feFlood flood-opacity="0" result="BackgroundImageFix"/>
<feColorMatrix in="SourceAlpha" type="matrix" values="0 0 0 0 0 0 0 0 0 0 0 0 0 0 0 0 0 0 127 0" result="hardAlpha"/>
<feOffset dy="1.52978"/>
<feGaussianBlur stdDeviation="1.52978"/>
<feComposite in2="hardAlpha" operator="out"/>
<feColorMatrix type="matrix" values="0 0 0 0 0.298039 0 0 0 0 0.454902 0 0 0 0 1 0 0 0 0.25 0"/>
<feBlend mode="normal" in2="BackgroundImageFix" result="effect1_dropShadow_4930_2773"/>
<feColorMatrix in="SourceAlpha" type="matrix" values="0 0 0 0 0 0 0 0 0 0 0 0 0 0 0 0 0 0 127 0" result="hardAlpha"/>
<feOffset dy="3.05956"/>
<feGaussianBlur stdDeviation="3.82445"/>
<feComposite in2="hardAlpha" operator="out"/>
<feColorMatrix type="matrix" values="0 0 0 0 1 0 0 0 0 1 0 0 0 0 1 0 0 0 0.25 0"/>
<feBlend mode="normal" in2="effect1_dropShadow_4930_2773" result="effect2_dropShadow_4930_2773"/>
<feBlend mode="normal" in="SourceGraphic" in2="effect2_dropShadow_4930_2773" result="shape"/>
<feGaussianBlur stdDeviation="0.382445" result="effect3_foregroundBlur_4930_2773"/>
</filter>
<filter id="filter5_d_4930_2773" x="74.4844" y="95.1538" width="12.2383" height="12.2383" filterUnits="userSpaceOnUse" color-interpolation-filters="sRGB">
<feFlood flood-opacity="0" result="BackgroundImageFix"/>
<feColorMatrix in="SourceAlpha" type="matrix" values="0 0 0 0 0 0 0 0 0 0 0 0 0 0 0 0 0 0 127 0" result="hardAlpha"/>
<feOffset dy="1.52978"/>
<feGaussianBlur stdDeviation="1.52978"/>
<feComposite in2="hardAlpha" operator="out"/>
<feColorMatrix type="matrix" values="0 0 0 0 0.298039 0 0 0 0 0.454902 0 0 0 0 1 0 0 0 0.25 0"/>
<feBlend mode="normal" in2="BackgroundImageFix" result="effect1_dropShadow_4930_2773"/>
<feBlend mode="normal" in="SourceGraphic" in2="effect1_dropShadow_4930_2773" result="shape"/>
</filter>
<filter id="filter6_d_4930_2773" x="100.491" y="95.1538" width="12.2383" height="12.2383" filterUnits="userSpaceOnUse" color-interpolation-filters="sRGB">
<feFlood flood-opacity="0" result="BackgroundImageFix"/>
<feColorMatrix in="SourceAlpha" type="matrix" values="0 0 0 0 0 0 0 0 0 0 0 0 0 0 0 0 0 0 127 0" result="hardAlpha"/>
<feOffset dy="1.52978"/>
<feGaussianBlur stdDeviation="1.52978"/>
<feComposite in2="hardAlpha" operator="out"/>
<feColorMatrix type="matrix" values="0 0 0 0 0.298039 0 0 0 0 0.454902 0 0 0 0 1 0 0 0 0.25 0"/>
<feBlend mode="normal" in2="BackgroundImageFix" result="effect1_dropShadow_4930_2773"/>
<feBlend mode="normal" in="SourceGraphic" in2="effect1_dropShadow_4930_2773" result="shape"/>
</filter>
<filter id="filter7_d_4930_2773" x="87.4878" y="95.1538" width="12.2383" height="12.2383" filterUnits="userSpaceOnUse" color-interpolation-filters="sRGB">
<feFlood flood-opacity="0" result="BackgroundImageFix"/>
<feColorMatrix in="SourceAlpha" type="matrix" values="0 0 0 0 0 0 0 0 0 0 0 0 0 0 0 0 0 0 127 0" result="hardAlpha"/>
<feOffset dy="1.52978"/>
<feGaussianBlur stdDeviation="1.52978"/>
<feComposite in2="hardAlpha" operator="out"/>
<feColorMatrix type="matrix" values="0 0 0 0 0.298039 0 0 0 0 0.454902 0 0 0 0 1 0 0 0 0.25 0"/>
<feBlend mode="normal" in2="BackgroundImageFix" result="effect1_dropShadow_4930_2773"/>
<feBlend mode="normal" in="SourceGraphic" in2="effect1_dropShadow_4930_2773" result="shape"/>
</filter>
<linearGradient id="paint0_linear_4930_2773" x1="17.7297" y1="6.21077" x2="90.255" y2="120.283" gradientUnits="userSpaceOnUse">
<stop stop-color="#D4B2FF" stop-opacity="0.1"/>
<stop offset="1" stop-color="#70A9FF" stop-opacity="0.8"/>
</linearGradient>
<linearGradient id="paint1_linear_4930_2773" x1="46.8857" y1="106.434" x2="87.3892" y2="35.0009" gradientUnits="userSpaceOnUse">
<stop stop-color="#E4F9FF"/>
<stop offset="0.505208" stop-color="#70A9FF"/>
<stop offset="1" stop-color="#4C74FF"/>
</linearGradient>
<linearGradient id="paint2_linear_4930_2773" x1="70.1682" y1="86.4213" x2="104.707" y2="112.942" gradientUnits="userSpaceOnUse">
<stop stop-color="#E4F9FF" stop-opacity="0.1"/>
<stop offset="1" stop-color="#E4F9FF"/>
</linearGradient>
<linearGradient id="paint3_linear_4930_2773" x1="85.6738" y1="88.2699" x2="104.96" y2="109.975" gradientUnits="userSpaceOnUse">
<stop stop-color="#E4F9FF" stop-opacity="0.1"/>
<stop offset="1" stop-color="#E4F9FF" stop-opacity="0.8"/>
</linearGradient>
</defs>
</svg>
