<svg width="38" height="38" viewBox="0 0 38 38" fill="none" xmlns="http://www.w3.org/2000/svg">
<path d="M28.3254 33.0124H9.67378C9.17078 33.0129 8.68216 32.8446 8.28605 32.5346C7.88994 32.2246 7.60922 31.7908 7.48878 31.3024L3.29295 14.5032C3.252 14.3397 3.24891 14.169 3.2839 14.004C3.31889 13.8391 3.39104 13.6844 3.49486 13.5515C3.59868 13.4187 3.73143 13.3113 3.88302 13.2375C4.0346 13.1637 4.20102 13.1255 4.36961 13.1257H33.6296C33.7982 13.1255 33.9646 13.1637 34.1162 13.2375C34.2678 13.3113 34.4006 13.4187 34.5044 13.5515C34.6082 13.6844 34.6803 13.8391 34.7153 14.004C34.7503 14.169 34.7472 14.3397 34.7063 14.5032L30.5104 31.3024C30.39 31.7908 30.1093 32.2246 29.7132 32.5346C29.3171 32.8446 28.8284 33.0129 28.3254 33.0124V33.0124Z" stroke="white" stroke-width="3" stroke-linecap="round" stroke-linejoin="round"/>
<path d="M16.8224 5.72463L17.5595 4.41822L14.9467 2.94406L14.2096 4.25047L16.8224 5.72463ZM9.6179 12.3888C9.21083 13.1103 9.46572 14.0252 10.1872 14.4323C10.9087 14.8394 11.8236 14.5845 12.2307 13.863L9.6179 12.3888ZM14.2096 4.25047L9.6179 12.3888L12.2307 13.863L16.8224 5.72463L14.2096 4.25047Z" fill="white"/>
<path d="M23.2819 4.24854L22.5429 2.94322L19.9322 4.42123L20.6712 5.72656L23.2819 4.24854ZM25.2787 13.8649C25.6869 14.5858 26.6022 14.8393 27.3231 14.4312C28.044 14.0231 28.2975 13.1078 27.8894 12.3869L25.2787 13.8649ZM20.6712 5.72656L25.2787 13.8649L27.8894 12.3869L23.2819 4.24854L20.6712 5.72656Z" fill="white"/>
</svg>
