<svg width="175" height="66" viewBox="0 0 175 66" fill="none" xmlns="http://www.w3.org/2000/svg">
<path d="M21.8739 63.8739C-1.21423 55.7981 -7.60759 25.5468 10.3669 8.93213C10.3736 8.93886 10.3804 8.9456 10.3871 8.95065C0.8602 21.439 3.27476 41.4309 16.3343 50.537C20.1144 53.165 24.7734 54.5623 29.3752 53.9529C36.1491 53.2256 42.2007 47.9276 38.9695 40.7945C46.3243 45.7508 46.6274 55.8772 39.8871 61.5102C34.9334 65.7039 27.7992 66.0406 21.8722 63.8739" fill="url(#paint0_linear_5216_5123)"/>
<path d="M29.3753 53.9529C24.7734 54.5624 20.1144 53.165 16.3343 50.537C7.49563 44.3923 2.80024 32.2435 5.1697 20.631C-7.09084 65.1934 51.3326 66.8429 38.9695 40.7945C42.2007 47.9276 36.1492 53.2256 29.3753 53.9529Z" fill="url(#paint1_linear_5216_5123)" fill-opacity="0.1"/>
<path d="M10.4824 41.5512C7.24291 36.0003 6.04864 29.1964 6.8805 22.7323C7.97833 14.2016 12.605 6.2628 20.7164 2.57686C22.4235 1.85334 24.1349 1.29053 25.8399 0.878033C26.5759 0.698922 27.3348 0.544061 28.1169 0.414813C50.8215 -3.33738 71.508 18.9816 64.1868 42.4578C68.59 22.7017 51.6864 2.99437 31.1627 7.9473C21.7738 10.0197 14.1244 17.9087 12.582 27.4324C12.0836 30.3978 11.9624 33.4784 12.2908 36.5C12.4959 38.3878 12.8765 40.2605 13.4502 42.0687C14.4933 45.3293 15.8743 47.3894 16.5938 48.5256C14.1241 46.7414 12.07 44.338 10.4824 41.5512Z" fill="url(#paint2_linear_5216_5123)"/>
<path opacity="0.4" d="M10.4824 41.5512C7.2429 36.0002 6.04863 29.1963 6.8805 22.7323C7.97833 14.2016 12.605 6.26277 20.7164 2.57684C22.4235 1.85329 24.135 1.29047 25.8401 0.877965C26.576 0.698876 27.3349 0.544031 28.1169 0.414795C13.2491 4.54068 8.99111 21.1314 12.2908 36.5C12.4959 38.3876 12.8764 40.2602 13.4501 42.0684C14.4932 45.3291 15.8743 47.3894 16.5938 48.5256C14.1241 46.7414 12.07 44.338 10.4824 41.5512Z" fill="white"/>
<path d="M37.1341 65.4395C47.705 64.155 60.0421 56.5976 59.0352 44.5958C58.6378 37.4997 52.3321 31.9155 45.2197 32.5418C49.0015 24.8918 40.5388 16.2183 32.8826 20.0517C38.1815 20.2874 41.3167 25.508 39.6935 30.4054C38.7085 33.8532 36.1811 36.562 33.2277 38.4947C41.0069 36.9779 46.9203 44.6951 46.3899 51.941C46.432 51.9663 46.4304 51.9898 46.3899 52.0134C46.2132 56.2273 44.2532 60.3199 40.9345 62.9613" fill="url(#paint3_linear_5216_5123)"/>
<path opacity="0.4" d="M59.0351 44.5959C60.042 56.5977 47.7049 64.1551 37.134 65.4396C59.3341 59.6539 62.0669 34.7383 45.2196 32.5419C52.3319 31.9156 58.6377 37.4999 59.0351 44.5959Z" fill="white"/>
<path d="M50.0741 20.1544C50.2391 22.8767 49.3295 25.8149 47.8461 28.0624C47.6194 25.9997 47.3919 24.8603 46.5011 23.0905C42.7362 16.3985 32.9045 16.1645 27.4675 20.9036C21.3402 25.8885 21.2476 34.7573 23.8406 41.6328C20.2582 37.4169 18.4832 31.66 18.8707 26.1459C19.192 21.573 21.0006 17.1671 24.499 13.9456C32.3219 6.25191 49.0016 7.21825 50.0741 20.1544Z" fill="url(#paint4_linear_5216_5123)"/>
<path opacity="0.4" d="M50.074 20.1544C50.2391 22.8767 49.3294 25.8149 47.846 28.0624C53.9178 9.97045 23.8074 5.46497 18.8706 26.1459C19.192 21.573 21.0005 17.1671 24.4989 13.9456C32.3218 6.25191 49.0015 7.21825 50.074 20.1544Z" fill="white"/>
<path d="M47.9678 27.939H47.9658V27.941L47.9678 27.939Z" fill="#4B82CC"/>
<path d="M46.3915 51.9395C46.4336 51.9647 46.4319 51.9883 46.3915 52.0118C46.3427 51.9866 46.341 51.963 46.3915 51.9395Z" fill="#4B82CC"/>
<path d="M10.468 8.8702C10.4714 8.85325 10.4731 8.83799 10.4765 8.82104L10.4934 8.82782C10.485 8.84138 10.4748 8.85494 10.4663 8.8685L10.468 8.87189V8.8702Z" fill="#4B82CC"/>
<path d="M23.8423 41.6328C23.8508 41.6464 23.8609 41.6599 23.8694 41.6752C23.8694 41.6752 23.8609 41.682 23.8558 41.6854C23.8508 41.6684 23.8474 41.6515 23.8423 41.6345V41.6328Z" fill="#4B82CC"/>
<path d="M10.4666 8.86816C10.4531 8.88172 10.4395 8.89527 10.4259 8.91053L10.4158 8.89697C10.4242 8.87324 10.4395 8.85799 10.4666 8.87155L10.4649 8.86816H10.4666Z" fill="#4B82CC"/>
<path d="M10.3669 8.93232C10.3839 8.92046 10.4008 8.90859 10.4178 8.89673L10.428 8.90859C10.4144 8.92215 10.4025 8.93741 10.389 8.95097C10.3822 8.94419 10.3754 8.9391 10.3686 8.93232H10.3669Z" fill="#4B82CC"/>
<path d="M16.592 48.4849C16.6107 48.5018 16.6208 48.5188 16.6073 48.5442C16.592 48.5323 16.5751 48.5205 16.5598 48.5103C16.57 48.5018 16.5819 48.4933 16.592 48.4849Z" fill="#4B82CC"/>
<path d="M16.6069 48.5437C16.6156 48.5472 16.6259 48.5489 16.6345 48.5523C16.6121 48.5834 16.6173 48.5472 16.6087 48.542L16.6069 48.5437Z" fill="#4B82CC"/>
<path d="M45.2168 32.542C45.2168 32.542 45.2113 32.5511 45.2095 32.5548C45.2131 32.5511 45.2168 32.5493 45.2205 32.5457L45.2168 32.542Z" fill="#F1F2F2"/>
<path d="M81.2839 20.8509C83.6738 21.3786 84.8687 22.6659 84.8687 24.7127C84.8687 25.4483 84.7244 26.1279 84.4357 26.7516C84.1469 27.3912 83.7379 27.9349 83.2086 28.3826C82.7114 28.8144 82.0538 29.1662 81.2357 29.438C80.4658 29.6939 79.5676 29.8218 78.5411 29.8218H70.1444V28.4066C70.1444 28.0069 70.3449 27.759 70.7458 27.663L70.8902 27.6391C70.9383 27.6391 70.9864 27.6311 71.0346 27.6151C71.0987 27.5991 71.1709 27.5831 71.2511 27.5671L71.9729 27.4472V14.8544L71.2511 14.7344C71.1709 14.7184 71.0987 14.7025 71.0346 14.6865C70.9864 14.6705 70.9383 14.6625 70.8902 14.6625L70.7458 14.6385C70.3449 14.5425 70.1444 14.2947 70.1444 13.8949V12.4797H77.9637C79.1185 12.4797 80.0889 12.5837 80.8749 12.7915C81.7089 13.0154 82.3746 13.3272 82.8718 13.727C83.3851 14.1268 83.762 14.6145 84.0026 15.1902C84.2432 15.7658 84.3635 16.3975 84.3635 17.0851C84.3635 17.5168 84.3073 17.9086 84.1951 18.2604C84.0828 18.6122 83.8903 18.964 83.6176 19.3158C83.377 19.6037 83.0562 19.8915 82.6553 20.1793C82.3024 20.4192 81.8453 20.6431 81.2839 20.8509ZM77.7953 19.9874C78.902 19.9874 79.736 19.7875 80.2974 19.3878C80.8588 18.988 81.1395 18.3484 81.1395 17.4689C81.1395 16.5734 80.8829 15.9338 80.3696 15.55C79.8724 15.1662 79.0704 14.9743 77.9637 14.9743H75.1968V19.9874H77.7953ZM81.5004 25.6722C81.6127 25.3844 81.6688 25.0405 81.6688 24.6408C81.6688 24.305 81.6047 23.9692 81.4763 23.6334C81.348 23.3135 81.1636 23.0577 80.923 22.8658C80.6824 22.6739 80.3536 22.514 79.9365 22.3861C79.5516 22.2741 79.0624 22.2182 78.4689 22.2182H75.1968V27.3033H78.493C79.1025 27.3033 79.6077 27.2313 80.0087 27.0874C80.4097 26.9435 80.7305 26.7516 80.9711 26.5117C81.2277 26.2559 81.4042 25.976 81.5004 25.6722Z" fill="#1B2B7C"/>
<path d="M93.8075 17.301C94.4331 17.301 94.9383 17.4369 95.3233 17.7087L94.9383 19.9395C94.9223 20.0834 94.8742 20.1793 94.794 20.2273C94.6977 20.2913 94.5855 20.3232 94.4571 20.3232C94.3449 20.3232 94.1845 20.2993 93.976 20.2513C93.6872 20.1873 93.4066 20.1553 93.1339 20.1553C92.5083 20.1553 91.979 20.3232 91.546 20.6591C91.145 20.9629 90.7761 21.4666 90.4392 22.1702V27.4472L91.6422 27.663C92.0432 27.759 92.2437 28.0069 92.2437 28.4066V29.8218H85.6514V28.4066C85.6514 28.0069 85.8519 27.759 86.2529 27.663L87.4559 27.4472V19.8915L86.2529 19.6756C85.8519 19.5797 85.6514 19.3318 85.6514 18.932V17.5168H89.2122C89.5169 17.5168 89.7255 17.5728 89.8377 17.6848C89.95 17.7967 90.0302 17.9886 90.0783 18.2604L90.2708 19.7476C90.7039 18.964 91.2171 18.3644 91.8106 17.9486C92.4201 17.5168 93.0858 17.301 93.8075 17.301Z" fill="#1B2B7C"/>
<path d="M107.15 27.6391C107.551 27.735 107.751 27.9829 107.751 28.3826V29.7978H104.912C104.607 29.7978 104.383 29.7579 104.238 29.6779C104.078 29.6139 103.958 29.438 103.878 29.1502L103.613 28.2867C103.292 28.5905 102.987 28.8384 102.699 29.0303C102.474 29.1902 102.161 29.3661 101.76 29.558C101.472 29.6859 101.135 29.7898 100.75 29.8698C100.349 29.9497 99.9478 29.9897 99.5468 29.9897C99.0175 29.9897 98.5364 29.9178 98.1033 29.7738C97.6381 29.6139 97.2612 29.4061 96.9725 29.1502C96.6357 28.8464 96.387 28.4946 96.2266 28.0948C96.0502 27.663 95.962 27.1833 95.962 26.6556C95.962 26.1759 96.0823 25.7122 96.3229 25.2644C96.5635 24.8007 96.9725 24.3929 97.5499 24.0411C98.1594 23.6573 98.9133 23.3535 99.8115 23.1296C100.758 22.8898 101.937 22.7698 103.348 22.7698V22.0503C103.348 21.2507 103.172 20.6351 102.819 20.2033C102.482 19.8035 101.977 19.6037 101.303 19.6037C100.79 19.6037 100.389 19.6596 100.1 19.7716C99.7313 19.9155 99.4506 20.0434 99.2581 20.1553L98.6085 20.5151C98.4321 20.6271 98.2156 20.683 97.9589 20.683C97.7504 20.683 97.574 20.6351 97.4296 20.5391C97.3334 20.4752 97.2211 20.3472 97.0928 20.1553L96.5394 19.2199C97.983 17.9086 99.6912 17.253 101.664 17.253C102.386 17.253 103.035 17.3729 103.613 17.6128C104.174 17.8527 104.647 18.1805 105.032 18.5962C105.465 19.0919 105.77 19.5957 105.947 20.1074C106.139 20.683 106.235 21.3227 106.235 22.0263V27.4712L106.885 27.5911L107.15 27.6391ZM103.348 24.5688C102.45 24.5688 101.728 24.6248 101.183 24.7367C100.589 24.8646 100.116 25.0086 99.7634 25.1685C99.4105 25.3284 99.1619 25.5203 99.0175 25.7441C98.8732 25.952 98.801 26.1999 98.801 26.4877C98.801 27.0314 98.9534 27.4072 99.2581 27.6151C99.5789 27.839 99.9799 27.9509 100.461 27.9509C100.766 27.9509 101.047 27.9269 101.303 27.8789C101.576 27.831 101.824 27.743 102.049 27.6151C102.338 27.4552 102.554 27.3192 102.699 27.2073C102.923 27.0314 103.14 26.8395 103.348 26.6316V24.5688Z" fill="#1B2B7C"/>
<path d="M122.463 27.663C122.864 27.759 123.065 28.0069 123.065 28.4066V29.8218H118.277V22.0023C118.277 21.2667 118.1 20.683 117.747 20.2513C117.411 19.8355 116.889 19.6276 116.184 19.6276C115.67 19.6276 115.189 19.7476 114.74 19.9874C114.259 20.2433 113.834 20.5551 113.465 20.9229V27.4472L114.163 27.5671L114.523 27.6391L114.668 27.663C115.069 27.759 115.269 28.0069 115.269 28.4066V29.8218H108.677V28.4066C108.677 28.0069 108.878 27.759 109.279 27.663L109.423 27.6391L109.784 27.5671L110.481 27.4472V19.8915L109.784 19.7716C109.704 19.7556 109.631 19.7396 109.567 19.7236C109.519 19.7076 109.471 19.6996 109.423 19.6996L109.279 19.6756C108.878 19.5797 108.677 19.3318 108.677 18.932V17.5168H112.31C112.679 17.5168 112.928 17.7007 113.056 18.0685L113.272 19.028C113.497 18.7721 113.754 18.5403 114.042 18.3324C114.267 18.1565 114.564 17.9806 114.932 17.8047C115.349 17.6128 115.678 17.4929 115.919 17.4449C116.32 17.3649 116.705 17.325 117.074 17.325C117.779 17.325 118.381 17.4369 118.878 17.6608C119.343 17.8527 119.776 18.1725 120.177 18.6202C120.514 19.02 120.779 19.5157 120.971 20.1074C121.148 20.6351 121.236 21.2667 121.236 22.0023V27.4472L121.958 27.5671C122.038 27.5831 122.102 27.5991 122.15 27.6151C122.214 27.6311 122.271 27.6391 122.319 27.6391L122.463 27.663Z" fill="#1B2B7C"/>
<path d="M133.38 29.7738C133.203 29.7738 133.043 29.7259 132.899 29.6299C132.77 29.55 132.682 29.4141 132.634 29.2222L132.393 28.0948C131.912 28.6385 131.343 29.0942 130.685 29.462C130.044 29.8138 129.282 29.9897 128.4 29.9897C127.71 29.9897 127.1 29.8538 126.571 29.582C126.01 29.2941 125.528 28.8864 125.127 28.3587C124.726 27.8469 124.414 27.1913 124.189 26.3918C123.965 25.5762 123.852 24.6808 123.852 23.7053C123.852 22.7938 123.973 21.9463 124.213 21.1628C124.438 20.4272 124.799 19.7476 125.296 19.1239C125.729 18.5802 126.282 18.1325 126.956 17.7807C127.598 17.4449 128.327 17.277 129.145 17.277C129.835 17.277 130.429 17.3889 130.926 17.6128C131.455 17.8527 131.888 18.1405 132.225 18.4763V14.3746L131.527 14.2547C131.447 14.2387 131.375 14.2227 131.311 14.2067C131.263 14.1907 131.214 14.1828 131.166 14.1828L131.022 14.1588C130.621 14.0628 130.421 13.815 130.421 13.4152V12H135.208V27.4232L135.834 27.5191L136.147 27.5911L136.291 27.6151C136.692 27.711 136.893 27.9589 136.893 28.3587V29.7738H133.38ZM132.249 20.6591C131.928 20.2593 131.559 19.9714 131.142 19.7955C130.709 19.6196 130.276 19.5317 129.843 19.5317C129.426 19.5317 129.025 19.6196 128.64 19.7955C128.287 19.9555 127.974 20.2113 127.702 20.5631C127.461 20.8989 127.269 21.3307 127.124 21.8584C126.996 22.3221 126.932 22.9378 126.932 23.7053C126.932 24.4729 126.988 25.0885 127.1 25.5523C127.213 26.032 127.381 26.4318 127.606 26.7516C127.83 27.0874 128.087 27.3192 128.375 27.4472C128.68 27.5911 129.033 27.663 129.434 27.663C130.076 27.663 130.605 27.5351 131.022 27.2793C131.471 27.0074 131.88 26.6396 132.249 26.1759V20.6591Z" fill="#1B2B7C"/>
<path d="M82.9921 41.9349C82.7034 41.9349 82.5189 41.791 82.4387 41.5031C82.3906 41.2953 82.3184 40.6556 82.2222 39.5842C80.9551 39.2164 79.8483 39.0326 78.902 39.0326C78.0519 39.0326 77.298 39.1685 76.6404 39.4403C75.9507 39.7282 75.3653 40.1359 74.8841 40.6636C74.3868 41.2073 74.0019 41.8469 73.7292 42.5825C73.4405 43.3501 73.2961 44.2056 73.2961 45.1491C73.2961 46.1085 73.4405 46.972 73.7292 47.7396C74.034 48.5391 74.4029 49.1788 74.8359 49.6585C75.3011 50.1702 75.8625 50.57 76.5201 50.8578C77.1296 51.1296 77.8193 51.2656 78.5892 51.2656C79.0383 51.2656 79.4393 51.2416 79.7922 51.1936C80.1611 51.1456 80.4899 51.0737 80.7786 50.9777C81.0513 50.8818 81.332 50.7459 81.6207 50.57C81.8613 50.426 82.1259 50.2182 82.4147 49.9463C82.4628 49.8983 82.551 49.8424 82.6793 49.7784C82.7435 49.7464 82.8397 49.7304 82.968 49.7304C83.1605 49.7304 83.3129 49.7944 83.4252 49.9223L84.7003 51.3135C83.9946 52.193 83.1284 52.8567 82.1019 53.3044C81.0433 53.7681 79.8002 54 78.3727 54C77.1376 54 75.9828 53.7761 74.9081 53.3284C73.8495 52.8806 72.9673 52.273 72.2616 51.5054C71.5077 50.6899 70.9463 49.7544 70.5774 48.699C70.1925 47.6116 70 46.4283 70 45.1491C70 43.8218 70.2165 42.6225 70.6496 41.5511C71.0827 40.4797 71.6922 39.5523 72.4781 38.7687C73.2961 37.9532 74.2345 37.3375 75.2931 36.9218C76.3838 36.49 77.5948 36.2741 78.926 36.2741C80.4017 36.2741 82.2222 36.6899 84.3875 37.5214V41.9349H82.9921Z" fill="#1B2B7C"/>
<path d="M93.6196 41.2873C94.2451 41.2873 94.7504 41.4232 95.1353 41.695L94.7504 43.9258C94.7343 44.0697 94.6862 44.1656 94.606 44.2136C94.5098 44.2776 94.3975 44.3095 94.2692 44.3095C94.1569 44.3095 93.9965 44.2855 93.788 44.2376C93.4993 44.1736 93.2186 44.1416 92.9459 44.1416C92.3204 44.1416 91.7911 44.3095 91.358 44.6453C90.957 44.9492 90.5881 45.4529 90.2513 46.1565V51.4335L91.4542 51.6493C91.8552 51.7453 92.0557 51.9931 92.0557 52.3929V53.8081H85.4634V52.3929C85.4634 51.9931 85.6639 51.7453 86.0649 51.6493L87.2679 51.4335V43.8778L86.0649 43.6619C85.6639 43.566 85.4634 43.3181 85.4634 42.9183V41.5031H89.0242C89.329 41.5031 89.5375 41.5591 89.6498 41.671C89.7621 41.783 89.8423 41.9749 89.8904 42.2467L90.0828 43.7339C90.5159 42.9503 91.0292 42.3507 91.6227 41.9349C92.2322 41.5031 92.8978 41.2873 93.6196 41.2873Z" fill="#1B2B7C"/>
<path d="M101.765 41.3113C102.551 41.3113 103.265 41.4312 103.906 41.671C104.516 41.8949 105.077 42.2627 105.59 42.7744C106.055 43.2381 106.424 43.8218 106.697 44.5254C106.97 45.245 107.106 46.0286 107.106 46.8761C107.106 47.068 107.09 47.2599 107.058 47.4517C107.026 47.6276 106.994 47.7396 106.962 47.7875C106.93 47.8675 106.857 47.9315 106.745 47.9794C106.681 48.0114 106.569 48.0274 106.408 48.0274H98.7815C98.8777 49.2907 99.2225 50.2182 99.816 50.8098C100.409 51.4015 101.195 51.6973 102.174 51.6973C102.671 51.6973 103.08 51.6413 103.401 51.5294C103.754 51.4175 104.058 51.2895 104.315 51.1456C104.427 51.0817 104.54 51.0257 104.652 50.9777C104.78 50.9138 104.901 50.8498 105.013 50.7858C105.189 50.6739 105.374 50.6179 105.566 50.6179C105.695 50.6179 105.807 50.6419 105.903 50.6899C105.983 50.7219 106.055 50.7858 106.12 50.8818L106.986 51.9612C106.617 52.3769 106.248 52.7047 105.879 52.9446C105.446 53.2164 105.021 53.4243 104.604 53.5682C104.203 53.6962 103.746 53.8001 103.232 53.8801C102.831 53.944 102.382 53.976 101.885 53.976C101.003 53.976 100.209 53.8401 99.5032 53.5682C98.7975 53.2964 98.1559 52.8726 97.5785 52.297C97.0331 51.7533 96.6001 51.0657 96.2793 50.2342C95.9745 49.4346 95.8221 48.4832 95.8221 47.3798C95.8221 46.5802 95.9585 45.7967 96.2312 45.0291C96.4878 44.3095 96.8808 43.6619 97.4101 43.0862C97.9073 42.5425 98.5248 42.1108 99.2626 41.791C100 41.4712 100.835 41.3113 101.765 41.3113ZM101.813 43.422C100.963 43.422 100.289 43.6699 99.792 44.1656C99.3108 44.6453 98.998 45.333 98.8536 46.2284H104.435C104.435 45.8926 104.379 45.5328 104.267 45.1491C104.171 44.8452 104.01 44.5494 103.786 44.2616C103.577 44.0057 103.305 43.8058 102.968 43.6619C102.599 43.502 102.214 43.422 101.813 43.422Z" fill="#1B2B7C"/>
<path d="M118.968 51.6254C119.369 51.7213 119.569 51.9692 119.569 52.3689V53.7841H116.73C116.426 53.7841 116.201 53.7441 116.057 53.6642C115.896 53.6002 115.776 53.4243 115.696 53.1365L115.431 52.273C115.11 52.5768 114.806 52.8247 114.517 53.0166C114.292 53.1765 113.98 53.3524 113.579 53.5443C113.29 53.6722 112.953 53.7761 112.568 53.8561C112.167 53.936 111.766 53.976 111.365 53.976C110.836 53.976 110.355 53.9041 109.922 53.7601C109.456 53.6002 109.079 53.3923 108.791 53.1365C108.454 52.8327 108.205 52.4809 108.045 52.0811C107.868 51.6493 107.78 51.1696 107.78 50.6419C107.78 50.1622 107.901 49.6985 108.141 49.2507C108.382 48.787 108.791 48.3792 109.368 48.0274C109.978 47.6436 110.732 47.3398 111.63 47.1159C112.576 46.8761 113.755 46.7561 115.166 46.7561V46.0366C115.166 45.237 114.99 44.6214 114.637 44.1896C114.3 43.7898 113.795 43.59 113.121 43.59C112.608 43.59 112.207 43.6459 111.918 43.7579C111.55 43.9018 111.269 44.0297 111.076 44.1416L110.427 44.5014C110.25 44.6134 110.034 44.6693 109.777 44.6693C109.569 44.6693 109.392 44.6214 109.248 44.5254C109.152 44.4614 109.039 44.3335 108.911 44.1416L108.358 43.2062C109.801 41.8949 111.509 41.2393 113.482 41.2393C114.204 41.2393 114.854 41.3592 115.431 41.5991C115.993 41.8389 116.466 42.1668 116.851 42.5825C117.284 43.0782 117.588 43.582 117.765 44.0937C117.957 44.6693 118.054 45.309 118.054 46.0126V51.4575L118.703 51.5774L118.968 51.6254ZM115.166 48.5551C114.268 48.5551 113.546 48.6111 113.001 48.723C112.408 48.8509 111.934 48.9949 111.582 49.1548C111.229 49.3147 110.98 49.5066 110.836 49.7304C110.691 49.9383 110.619 50.1862 110.619 50.474C110.619 51.0177 110.772 51.3935 111.076 51.6014C111.397 51.8252 111.798 51.9372 112.279 51.9372C112.584 51.9372 112.865 51.9132 113.121 51.8652C113.394 51.8172 113.643 51.7293 113.867 51.6014C114.156 51.4415 114.373 51.3055 114.517 51.1936C114.741 51.0177 114.958 50.8258 115.166 50.6179V48.5551Z" fill="#1B2B7C"/>
<path d="M125.5 54C124.425 54 123.599 53.6962 123.022 53.0885C122.444 52.4809 122.155 51.6493 122.155 50.5939V43.7339H120.904C120.776 43.7339 120.64 43.6779 120.495 43.566C120.367 43.47 120.303 43.3181 120.303 43.1102V41.9109L122.3 41.5991L122.925 38.241C122.941 38.0971 123.013 37.9772 123.142 37.8812C123.27 37.7853 123.422 37.7373 123.599 37.7373H125.139V41.6231H128.387V43.7339H125.139V50.4021C125.139 50.7698 125.235 51.0657 125.427 51.2896C125.62 51.4974 125.877 51.6014 126.197 51.6014C126.422 51.6014 126.574 51.5854 126.654 51.5534L126.967 51.4095L127.232 51.2656C127.28 51.2336 127.344 51.2176 127.424 51.2176C127.553 51.2176 127.633 51.2336 127.665 51.2656L127.833 51.4575L128.724 52.8966C128.307 53.2324 127.809 53.5043 127.232 53.7122C126.687 53.9041 126.109 54 125.5 54Z" fill="#1B2B7C"/>
<path d="M134.691 37.9052C134.691 38.1291 134.635 38.3689 134.522 38.6248C134.426 38.8487 134.29 39.0485 134.113 39.2244C133.921 39.4163 133.72 39.5523 133.512 39.6322C133.271 39.7282 133.023 39.7761 132.766 39.7761C132.509 39.7761 132.261 39.7282 132.02 39.6322C131.828 39.5523 131.635 39.4163 131.443 39.2244C131.266 39.0485 131.13 38.8487 131.034 38.6248C130.938 38.4009 130.889 38.161 130.889 37.9052C130.889 37.6493 130.938 37.4015 131.034 37.1616C131.114 36.9537 131.25 36.7539 131.443 36.562C131.619 36.3861 131.812 36.2581 132.02 36.1782C132.309 36.0662 132.558 36.0103 132.766 36.0103C132.975 36.0103 133.223 36.0662 133.512 36.1782C133.753 36.2741 133.953 36.4021 134.113 36.562C134.306 36.7539 134.442 36.9537 134.522 37.1616C134.635 37.4335 134.691 37.6813 134.691 37.9052ZM135.461 51.6493C135.862 51.7453 136.062 51.9931 136.062 52.3929V53.8081H129.446V52.3929C129.446 51.9931 129.646 51.7453 130.047 51.6493L130.192 51.6254L130.553 51.5534L131.274 51.4335V43.8778L130.553 43.7579C130.472 43.7419 130.4 43.7259 130.336 43.7099C130.288 43.6939 130.24 43.6859 130.192 43.6859L130.047 43.6619C129.646 43.566 129.446 43.3181 129.446 42.9183V41.5031H134.234V51.4335L134.956 51.5534C135.036 51.5694 135.1 51.5854 135.148 51.6014C135.212 51.6174 135.268 51.6254 135.316 51.6254L135.461 51.6493Z" fill="#1B2B7C"/>
<path d="M142.957 41.3113C143.839 41.3113 144.673 41.4632 145.459 41.767C146.229 42.0708 146.871 42.4866 147.384 43.0143C147.897 43.542 148.298 44.2056 148.587 45.0051C148.876 45.7887 149.02 46.6602 149.02 47.6196C149.02 48.5791 148.876 49.4586 148.587 50.2581C148.282 51.0737 147.881 51.7453 147.384 52.273C146.855 52.8327 146.213 53.2564 145.459 53.5443C144.721 53.8321 143.887 53.976 142.957 53.976C142.027 53.976 141.185 53.8321 140.431 53.5443C139.677 53.2564 139.035 52.8327 138.506 52.273C137.945 51.6973 137.528 51.0257 137.255 50.2581C136.966 49.4586 136.822 48.5791 136.822 47.6196C136.822 46.6602 136.966 45.7887 137.255 45.0051C137.528 44.2696 137.945 43.6059 138.506 43.0143C139.019 42.4866 139.661 42.0708 140.431 41.767C141.217 41.4632 142.059 41.3113 142.957 41.3113ZM142.957 51.6973C143.984 51.6973 144.737 51.3535 145.219 50.6659C145.716 49.9463 145.964 48.9389 145.964 47.6436C145.964 46.3484 145.716 45.341 145.219 44.6214C144.737 43.9178 143.984 43.566 142.957 43.566C141.93 43.566 141.161 43.9178 140.647 44.6214C140.134 45.325 139.877 46.3404 139.877 47.6676C139.877 48.9629 140.134 49.9623 140.647 50.6659C141.145 51.3535 141.914 51.6973 142.957 51.6973Z" fill="#1B2B7C"/>
<path d="M163.674 51.6493C164.075 51.7453 164.276 51.9931 164.276 52.3929V53.8081H159.488V45.9886C159.488 45.253 159.311 44.6693 158.959 44.2376C158.622 43.8218 158.1 43.6139 157.395 43.6139C156.881 43.6139 156.4 43.7339 155.951 43.9737C155.47 44.2296 155.045 44.5414 154.676 44.9092V51.4335L155.374 51.5534L155.735 51.6254L155.879 51.6493C156.28 51.7453 156.48 51.9931 156.48 52.3929V53.8081H149.888V52.3929C149.888 51.9931 150.089 51.7453 150.49 51.6493L150.634 51.6254L150.995 51.5534L151.693 51.4335V43.8778L150.995 43.7579C150.915 43.7419 150.843 43.7259 150.778 43.7099C150.73 43.6939 150.682 43.6859 150.634 43.6859L150.49 43.6619C150.089 43.566 149.888 43.3181 149.888 42.9183V41.5031H153.521C153.89 41.5031 154.139 41.687 154.267 42.0548L154.484 43.0143C154.708 42.7584 154.965 42.5266 155.253 42.3187C155.478 42.1428 155.775 41.9669 156.144 41.791C156.561 41.5991 156.889 41.4792 157.13 41.4312C157.531 41.3512 157.916 41.3113 158.285 41.3113C158.991 41.3113 159.592 41.4232 160.089 41.6471C160.555 41.839 160.988 42.1588 161.389 42.6065C161.725 43.0063 161.99 43.502 162.183 44.0937C162.359 44.6214 162.447 45.253 162.447 45.9886V51.4335L163.169 51.5534C163.249 51.5694 163.313 51.5854 163.361 51.6014C163.426 51.6174 163.482 51.6254 163.53 51.6254L163.674 51.6493Z" fill="#1B2B7C"/>
<path d="M175 53.8081H165.136V52.5608C165.136 52.4169 165.168 52.257 165.232 52.0811C165.312 51.8572 165.408 51.6813 165.521 51.5534L171.439 43.7818H167.566C167.501 44.4215 167.453 44.8212 167.421 44.9812C167.341 45.285 167.157 45.4369 166.868 45.4369H165.472V41.5031H174.832V42.7264C174.832 42.9503 174.799 43.1502 174.735 43.3261C174.687 43.438 174.591 43.6059 174.447 43.8298L168.6 51.5294H172.907L173.051 50.2342C173.131 49.9303 173.316 49.7784 173.605 49.7784H175V53.8081Z" fill="#1B2B7C"/>
<defs>
<linearGradient id="paint0_linear_5216_5123" x1="42.5679" y1="59.0137" x2="3.49581" y2="18.169" gradientUnits="userSpaceOnUse">
<stop stop-color="#FD7387"/>
<stop offset="1" stop-color="#FFDEE3"/>
</linearGradient>
<linearGradient id="paint1_linear_5216_5123" x1="3.44657" y1="26.1213" x2="40.7214" y2="46.9006" gradientUnits="userSpaceOnUse">
<stop stop-color="white"/>
<stop offset="1" stop-color="#555555"/>
</linearGradient>
<linearGradient id="paint2_linear_5216_5123" x1="10.7588" y1="34.5906" x2="60.4176" y2="15.5839" gradientUnits="userSpaceOnUse">
<stop stop-color="#FE8F9F"/>
<stop offset="1" stop-color="#FFECEF"/>
</linearGradient>
<linearGradient id="paint3_linear_5216_5123" x1="35.8959" y1="19.1045" x2="45.9878" y2="65.4395" gradientUnits="userSpaceOnUse">
<stop stop-color="#FE8395"/>
<stop offset="1" stop-color="#FFDEE3"/>
</linearGradient>
<linearGradient id="paint4_linear_5216_5123" x1="47.9598" y1="25.358" x2="20.1637" y2="25.358" gradientUnits="userSpaceOnUse">
<stop stop-color="#FE8B9C"/>
<stop offset="1" stop-color="#FFDEE3"/>
</linearGradient>
</defs>
</svg>
