<svg width="103" height="31" viewBox="0 0 103 31" fill="none" xmlns="http://www.w3.org/2000/svg">
<path d="M13.9309 30.5H10.4407C10.6741 29.7934 10.9677 29.125 11.1077 28.4287C11.2824 27.5579 11.4119 26.6637 11.4209 25.7798C11.457 22.225 11.4329 18.6701 11.4465 15.1139C11.4465 14.7445 11.3381 14.633 10.9556 14.636C8.69708 14.6521 6.43702 14.6521 4.17846 14.636C3.80204 14.633 3.68007 14.7342 3.6861 15.1109C3.70718 16.442 3.70567 17.7745 3.6861 19.1055C3.68007 19.4691 3.81408 19.5746 4.16642 19.5614C4.73105 19.5409 5.29569 19.5614 5.86033 19.5541C6.08468 19.5512 6.20664 19.5995 6.20514 19.8575C6.18857 22.1048 6.21568 24.3535 6.15545 26.6007C6.12985 27.5741 5.77601 28.4785 4.76418 28.9051C3.73578 29.3405 2.67878 29.3302 1.68953 28.7717C0.968302 28.3642 0.710827 27.6532 0.582842 26.8997C0.52412 26.5523 0.506052 26.1946 0.506052 25.8414C0.500029 19.6846 0.4925 13.5263 0.516592 7.36948C0.519603 6.71129 0.647588 6.02818 0.865915 5.4037C1.16555 4.54322 1.89431 4.11078 2.81429 4.0067C3.46928 3.9334 4.12275 3.94073 4.73105 4.23098C5.74138 4.71326 6.10576 5.60453 6.15696 6.60721C6.22321 7.89868 6.19008 9.196 6.19911 10.4904C6.20213 11.0108 6.19912 11.0108 6.73966 11.0123C8.15804 11.0123 9.57641 11.0049 10.9948 11.0211C11.3411 11.0255 11.4525 10.9184 11.445 10.5798C11.4149 9.27369 11.4465 7.96464 11.3878 6.65999C11.3065 4.87158 10.8442 3.18872 9.71041 1.73161C9.66825 1.67737 9.6532 1.60555 9.60652 1.5H14.8358C14.8057 1.58062 14.7982 1.64219 14.7651 1.6847C13.559 3.2415 13.166 5.04749 13.0486 6.94291C12.8137 10.7352 14.2923 13.8517 17.0176 16.4669C18.3306 17.7261 19.7023 18.9281 21.0137 20.1903C22.1008 21.2355 23.0404 22.3994 23.4951 23.8521C23.9062 25.1641 24.0056 26.4907 23.465 27.7998C23.2015 28.4389 22.7107 28.8553 22.0286 29.0458C21.3495 29.2364 20.6599 29.2408 19.9823 29.0678C18.9539 28.8069 18.3863 28.0871 18.2538 27.1094C18.1303 26.2064 18.1348 25.2858 18.1137 24.3711C18.0927 23.4036 18.1092 23.4036 17.0959 23.4036C15.816 23.4036 14.5362 23.408 13.2548 23.4006C13.0169 23.4006 12.8799 23.4402 12.8829 23.7173C12.9025 25.2784 12.7881 26.8514 13.1931 28.3847C13.3557 28.996 13.5996 29.5867 13.8074 30.1878C13.8375 30.2772 13.8752 30.3637 13.9279 30.4985L13.9309 30.5Z" fill="#1B281D"/>
<path d="M26.6164 17.9475C26.5065 17.902 26.4659 17.8961 26.4418 17.8727C24.8758 16.3804 23.3084 14.8896 21.75 13.39C20.6493 12.3301 19.6194 11.2131 19.0503 9.77943C18.466 8.30913 18.3426 6.81391 18.9313 5.31575C19.2294 4.55641 19.8468 4.11811 20.6644 4.03162C21.1793 3.97738 21.7289 3.97005 22.2288 4.08439C23.2707 4.32333 23.8821 5.13105 23.995 6.33162C24.0582 7.01034 24.0658 7.69491 24.0733 8.37803C24.0763 8.67707 24.1772 8.79141 24.4904 8.77968C25.0159 8.76063 25.5429 8.77529 26.0699 8.77529C26.4453 8.77529 26.6335 8.95364 26.6345 9.31034C26.6345 11.2028 26.6345 13.0938 26.6345 14.9863C26.6345 15.8292 26.6375 16.6707 26.6375 17.5135C26.6375 17.6425 26.627 17.7715 26.6194 17.9489L26.6164 17.9475Z" fill="#1B281D"/>
<path d="M36.3753 7.41118C36.3753 8.18956 36.6101 8.8382 37.0074 9.33859C36.3391 9.74631 35.8876 10.4135 35.8876 11.3031C35.8876 11.8961 36.0682 12.3965 36.3572 12.7486C35.8876 13.1934 35.6167 13.842 35.6167 14.6019C35.6167 16.6405 37.4047 17.6783 39.7346 17.6783C41.7575 17.6783 43.8707 16.7517 43.8707 14.4536C43.8707 12.6559 42.5883 11.7108 40.6738 11.7108H38.8135C38.2717 11.7108 37.9646 11.4699 37.9646 11.0251C37.9646 10.7285 38.1272 10.4876 38.3981 10.3208C38.7955 10.4506 39.247 10.5247 39.7166 10.5247C41.5588 10.5247 43.0579 9.37565 43.0579 7.41118C43.0579 6.8552 42.9315 6.35482 42.6967 5.92856L43.9971 5.26138L43.1121 3.7417L41.3963 4.66834C40.8906 4.40888 40.3307 4.26062 39.7166 4.26062C37.8743 4.26062 36.3753 5.46524 36.3753 7.41118ZM40.1681 13.6382C41.017 13.6382 41.6311 13.8235 41.6311 14.6019C41.6311 15.4359 40.8003 15.7509 39.7346 15.7509C38.5607 15.7509 37.6937 15.3061 37.6937 14.4166C37.6937 14.0644 37.7479 13.7864 37.8924 13.5641C38.2175 13.6196 38.5607 13.6382 38.9399 13.6382H40.1681ZM38.4704 7.41118C38.4704 6.63281 38.9941 6.11389 39.7166 6.11389C40.439 6.11389 40.9628 6.63281 40.9628 7.41118C40.9628 8.17102 40.439 8.67141 39.7166 8.67141C38.9941 8.67141 38.4704 8.17102 38.4704 7.41118Z" fill="#1B281D"/>
<path d="M47.1334 7.29999C47.4224 6.42895 48.0726 6.22509 48.7047 6.22509C49.5355 6.22509 50.2941 6.55868 50.2941 7.59651V8.00423H48.777C46.4832 8.00423 44.8938 9.20886 44.8938 11.0621C44.8938 12.9154 46.1039 13.8976 47.6572 13.8976C48.9576 13.8976 49.8245 13.3602 50.4566 12.5633L50.6914 13.7494H52.5337V8.17102C52.5337 5.18725 50.872 4.26062 48.7047 4.26062C46.8444 4.26062 45.5259 5.31698 45.237 6.8552L47.1334 7.29999ZM47.2417 11.0251C47.2417 10.1911 47.8378 9.82044 48.795 9.82044H50.2941V10.0058C50.2941 11.2104 49.2104 11.9332 48.1809 11.9332C47.5488 11.9332 47.2417 11.4699 47.2417 11.0251Z" fill="#1B281D"/>
<path d="M53.4695 4.40888L56.5579 13.7494H58.5808L61.6693 4.40888H59.4116L57.5694 10.9139L55.7271 4.40888H53.4695Z" fill="#1B281D"/>
<path d="M62.7837 1.72163C62.7837 2.55561 63.3978 3.20425 64.2286 3.20425C65.0594 3.20425 65.6735 2.55561 65.6735 1.72163C65.6735 0.88766 65.0594 0.239014 64.2286 0.239014C63.3978 0.239014 62.7837 0.88766 62.7837 1.72163ZM63.1088 4.40888V13.7494H65.3484V4.40888H63.1088Z" fill="#1B281D"/>
<path d="M39.0844 20.8629C37.3144 20.8629 36.1766 22.1416 36.1766 23.5872C36.1766 25.0327 37.0255 25.6814 38.0188 26.1076C39.1206 26.5895 40.2945 26.7563 40.2945 27.5346C40.2945 28.2204 39.8611 28.5354 39.1747 28.5354C38.2897 28.5354 37.6757 27.9053 37.3506 26.9972L35.5625 27.9794C36.014 29.1285 37.2783 30.4999 39.1747 30.4999C41.1434 30.4999 42.4077 29.0729 42.4077 27.3864C42.4077 25.3849 40.3668 24.9771 39.1206 24.5138C38.5787 24.3099 38.2536 24.0134 38.2536 23.6057C38.2536 23.0868 38.651 22.8273 39.0844 22.8273C39.5901 22.8273 40.1862 23.0868 40.6016 23.6428L41.9381 22.3825C41.3782 21.4744 40.3126 20.8629 39.0844 20.8629Z" fill="#224540"/>
<path d="M52.4528 25.4775C52.4528 23.4389 51.2427 20.8629 48.2084 20.8629C45.0839 20.8629 43.8376 23.476 43.8376 25.6814C43.8376 27.8868 45.0839 30.4999 48.2084 30.4999C50.4119 30.4999 51.6401 29.425 52.3445 27.7756L50.5383 27.0899C49.9965 28.0536 49.3644 28.5354 48.3349 28.5354C46.9442 28.5354 46.2398 27.4605 46.1856 26.4227H52.4528V25.4775ZM48.2084 22.8273C49.4005 22.8273 49.9604 23.6798 50.1591 24.6065H46.2398C46.4023 23.7169 47.0706 22.8273 48.2084 22.8273Z" fill="#224540"/>
<path d="M56.7109 30.3516V27.0343C56.7109 24.0134 57.8488 22.92 59.1492 22.92C59.5284 22.92 59.8174 23.0127 60.0883 23.1795L60.5038 21.0482C60.1425 20.937 59.7994 20.8629 59.402 20.8629C58.3725 20.8629 57.3611 21.4374 56.7109 22.5308V21.0111H54.4713V30.3516H56.7109Z" fill="#224540"/>
<path d="M61.6182 21.0111L64.7066 30.3516H66.7295L69.818 21.0111H67.5603L65.7181 27.5161L63.8758 21.0111H61.6182Z" fill="#224540"/>
<path d="M70.9324 18.3239C70.9324 19.1578 71.5465 19.8065 72.3773 19.8065C73.2081 19.8065 73.8222 19.1578 73.8222 18.3239C73.8222 17.4899 73.2081 16.8413 72.3773 16.8413C71.5465 16.8413 70.9324 17.4899 70.9324 18.3239ZM71.2575 21.0111V30.3516H73.4971V21.0111H71.2575Z" fill="#224540"/>
<path d="M82.2307 26.9972C81.7611 27.9794 81.1109 28.5354 80.0994 28.5354C78.6907 28.5354 78.0043 27.3308 78.0043 25.6814C78.0043 24.032 78.6907 22.8273 80.0994 22.8273C81.1109 22.8273 81.7611 23.3833 82.2307 24.3655L84.2355 23.5316C83.5491 21.771 82.1223 20.8629 80.0994 20.8629C77.1374 20.8629 75.6564 23.0497 75.6564 25.6814C75.6564 28.313 77.1374 30.4999 80.0994 30.4999C82.1223 30.4999 83.5491 29.5918 84.2355 27.8312L82.2307 26.9972Z" fill="#224540"/>
<path d="M94.3605 25.4775C94.3605 23.4389 93.1504 20.8629 90.1161 20.8629C86.9915 20.8629 85.7453 23.476 85.7453 25.6814C85.7453 27.8868 86.9915 30.4999 90.1161 30.4999C92.3195 30.4999 93.5477 29.425 94.2521 27.7756L92.446 27.0899C91.9041 28.0536 91.272 28.5354 90.2425 28.5354C88.8518 28.5354 88.1474 27.4605 88.0932 26.4227H94.3605V25.4775ZM90.1161 22.8273C91.3081 22.8273 91.868 23.6798 92.0667 24.6065H88.1474C88.31 23.7169 88.9782 22.8273 90.1161 22.8273Z" fill="#224540"/>
<path d="M99.1767 20.8629C97.4067 20.8629 96.2689 22.1416 96.2689 23.5872C96.2689 25.0327 97.1178 25.6814 98.1111 26.1076C99.2129 26.5895 100.387 26.7563 100.387 27.5346C100.387 28.2204 99.9534 28.5354 99.267 28.5354C98.382 28.5354 97.768 27.9053 97.4429 26.9972L95.6548 27.9794C96.1063 29.1285 97.3706 30.4999 99.267 30.4999C101.236 30.4999 102.5 29.0729 102.5 27.3864C102.5 25.3849 100.459 24.9771 99.2128 24.5138C98.671 24.3099 98.3459 24.0134 98.3459 23.6057C98.3459 23.0868 98.7433 22.8273 99.1767 22.8273C99.6824 22.8273 100.278 23.0868 100.694 23.6428L102.03 22.3825C101.47 21.4744 100.405 20.8629 99.1767 20.8629Z" fill="#224540"/>
</svg>
