<svg width="40" height="41" viewBox="0 0 40 41" fill="none" xmlns="http://www.w3.org/2000/svg">
<path fill-rule="evenodd" clip-rule="evenodd" d="M19.9999 3.83325C10.7999 3.83325 3.33325 11.2999 3.33325 20.4999C3.33325 29.6999 10.7999 37.1666 19.9999 37.1666C29.1999 37.1666 36.6666 29.6999 36.6666 20.4999C36.6666 11.2999 29.1999 3.83325 19.9999 3.83325ZM6.66659 20.4999C6.66659 27.8499 12.6499 33.8333 19.9999 33.8333C27.3499 33.8333 33.3333 27.8499 33.3333 20.4999C33.3333 13.1499 27.3499 7.16659 19.9999 7.16659C12.6499 7.16659 6.66659 13.1499 6.66659 20.4999ZM11.6666 18.8333V22.1666H28.3333V18.8333H11.6666Z" fill="#1B281D"/>
</svg>
