<svg width="128" height="131" viewBox="0 0 128 131" fill="none" xmlns="http://www.w3.org/2000/svg">
<g filter="url(#filter0_df_4930_2853)">
<path d="M97.541 22.4272H35.856C29.4683 22.4272 24.29 27.6055 24.29 33.9932V114.184C24.29 120.571 29.4683 125.75 35.856 125.75H97.541C103.929 125.75 109.107 120.571 109.107 114.184V33.9932C109.107 27.6055 103.929 22.4272 97.541 22.4272Z" fill="url(#paint0_linear_4930_2853)"/>
</g>
<path d="M85.2041 0.837402H11.9531C5.56545 0.837402 0.387207 6.01565 0.387207 12.4033V104.931C0.387207 111.319 5.56545 116.497 11.9531 116.497H85.2041C91.5918 116.497 96.77 111.319 96.77 104.931V12.4033C96.77 6.01565 91.5918 0.837402 85.2041 0.837402Z" fill="url(#paint1_linear_4930_2853)"/>
<g filter="url(#filter1_d_4930_2853)">
<path d="M73.6382 3.15039V18.9572C73.6382 21.0864 75.3643 22.8125 77.4935 22.8125H94.4569" stroke="white" stroke-width="3.08425" stroke-linecap="round"/>
</g>
<g filter="url(#filter2_d_4930_2853)">
<path d="M13.4951 43.6313H82.8907" stroke="white" stroke-width="3.08425" stroke-linecap="round"/>
</g>
<g filter="url(#filter3_d_4930_2853)">
<path d="M13.4951 62.9077H82.8907" stroke="white" stroke-width="3.08425" stroke-linecap="round"/>
</g>
<g filter="url(#filter4_d_4930_2853)">
<path d="M13.4951 82.5698H52.8193" stroke="white" stroke-width="3.08425" stroke-linecap="round"/>
</g>
<path d="M116.047 75.6304H85.2041C78.8164 75.6304 73.6382 80.8086 73.6382 87.1963C73.6382 93.584 78.8164 98.7622 85.2041 98.7622H116.047C122.434 98.7622 127.613 93.584 127.613 87.1963C127.613 80.8086 122.434 75.6304 116.047 75.6304Z" fill="url(#paint2_linear_4930_2853)"/>
<path d="M116.047 76.0161H85.2043C79.0296 76.0161 74.0239 81.0218 74.0239 87.1965C74.0239 93.3713 79.0296 98.3769 85.2043 98.3769H116.047C122.222 98.3769 127.227 93.3713 127.227 87.1965C127.227 81.0218 122.222 76.0161 116.047 76.0161Z" stroke="url(#paint3_linear_4930_2853)" stroke-width="0.771062"/>
<g filter="url(#filter5_d_4930_2853)">
<path d="M86.7464 90.2808C88.4497 90.2808 89.8306 88.8999 89.8306 87.1966C89.8306 85.4932 88.4497 84.1123 86.7464 84.1123C85.043 84.1123 83.6621 85.4932 83.6621 87.1966C83.6621 88.8999 85.043 90.2808 86.7464 90.2808Z" fill="white"/>
</g>
<g filter="url(#filter6_d_4930_2853)">
<path d="M114.505 90.2808C116.208 90.2808 117.589 88.8999 117.589 87.1966C117.589 85.4932 116.208 84.1123 114.505 84.1123C112.801 84.1123 111.42 85.4932 111.42 87.1966C111.42 88.8999 112.801 90.2808 114.505 90.2808Z" fill="white"/>
</g>
<g filter="url(#filter7_d_4930_2853)">
<path d="M100.625 90.2808C102.329 90.2808 103.71 88.8999 103.71 87.1966C103.71 85.4932 102.329 84.1123 100.625 84.1123C98.9219 84.1123 97.541 85.4932 97.541 87.1966C97.541 88.8999 98.9219 90.2808 100.625 90.2808Z" fill="white"/>
</g>
<defs>
<filter id="filter0_df_4930_2853" x="21.2058" y="20.8851" width="90.9854" height="109.491" filterUnits="userSpaceOnUse" color-interpolation-filters="sRGB">
<feFlood flood-opacity="0" result="BackgroundImageFix"/>
<feColorMatrix in="SourceAlpha" type="matrix" values="0 0 0 0 0 0 0 0 0 0 0 0 0 0 0 0 0 0 127 0" result="hardAlpha"/>
<feOffset dy="1.54212"/>
<feGaussianBlur stdDeviation="1.54212"/>
<feComposite in2="hardAlpha" operator="out"/>
<feColorMatrix type="matrix" values="0 0 0 0 0.47451 0 0 0 0 0.14902 0 0 0 0 1 0 0 0 0.25 0"/>
<feBlend mode="normal" in2="BackgroundImageFix" result="effect1_dropShadow_4930_2853"/>
<feBlend mode="normal" in="SourceGraphic" in2="effect1_dropShadow_4930_2853" result="shape"/>
<feGaussianBlur stdDeviation="0.385531" result="effect2_foregroundBlur_4930_2853"/>
</filter>
<filter id="filter1_d_4930_2853" x="69.0119" y="0.0662736" width="30.0713" height="28.9146" filterUnits="userSpaceOnUse" color-interpolation-filters="sRGB">
<feFlood flood-opacity="0" result="BackgroundImageFix"/>
<feColorMatrix in="SourceAlpha" type="matrix" values="0 0 0 0 0 0 0 0 0 0 0 0 0 0 0 0 0 0 127 0" result="hardAlpha"/>
<feOffset dy="1.54212"/>
<feGaussianBlur stdDeviation="1.54212"/>
<feComposite in2="hardAlpha" operator="out"/>
<feColorMatrix type="matrix" values="0 0 0 0 0.298039 0 0 0 0 0.454902 0 0 0 0 1 0 0 0 0.25 0"/>
<feBlend mode="normal" in2="BackgroundImageFix" result="effect1_dropShadow_4930_2853"/>
<feBlend mode="normal" in="SourceGraphic" in2="effect1_dropShadow_4930_2853" result="shape"/>
</filter>
<filter id="filter2_d_4930_2853" x="8.86888" y="40.5472" width="78.648" height="9.25248" filterUnits="userSpaceOnUse" color-interpolation-filters="sRGB">
<feFlood flood-opacity="0" result="BackgroundImageFix"/>
<feColorMatrix in="SourceAlpha" type="matrix" values="0 0 0 0 0 0 0 0 0 0 0 0 0 0 0 0 0 0 127 0" result="hardAlpha"/>
<feOffset dy="1.54212"/>
<feGaussianBlur stdDeviation="1.54212"/>
<feComposite in2="hardAlpha" operator="out"/>
<feColorMatrix type="matrix" values="0 0 0 0 0.298039 0 0 0 0 0.454902 0 0 0 0 1 0 0 0 0.25 0"/>
<feBlend mode="normal" in2="BackgroundImageFix" result="effect1_dropShadow_4930_2853"/>
<feBlend mode="normal" in="SourceGraphic" in2="effect1_dropShadow_4930_2853" result="shape"/>
</filter>
<filter id="filter3_d_4930_2853" x="8.86888" y="59.8236" width="78.648" height="9.25248" filterUnits="userSpaceOnUse" color-interpolation-filters="sRGB">
<feFlood flood-opacity="0" result="BackgroundImageFix"/>
<feColorMatrix in="SourceAlpha" type="matrix" values="0 0 0 0 0 0 0 0 0 0 0 0 0 0 0 0 0 0 127 0" result="hardAlpha"/>
<feOffset dy="1.54212"/>
<feGaussianBlur stdDeviation="1.54212"/>
<feComposite in2="hardAlpha" operator="out"/>
<feColorMatrix type="matrix" values="0 0 0 0 0.298039 0 0 0 0 0.454902 0 0 0 0 1 0 0 0 0.25 0"/>
<feBlend mode="normal" in2="BackgroundImageFix" result="effect1_dropShadow_4930_2853"/>
<feBlend mode="normal" in="SourceGraphic" in2="effect1_dropShadow_4930_2853" result="shape"/>
</filter>
<filter id="filter4_d_4930_2853" x="8.86888" y="79.4857" width="48.5767" height="9.25248" filterUnits="userSpaceOnUse" color-interpolation-filters="sRGB">
<feFlood flood-opacity="0" result="BackgroundImageFix"/>
<feColorMatrix in="SourceAlpha" type="matrix" values="0 0 0 0 0 0 0 0 0 0 0 0 0 0 0 0 0 0 127 0" result="hardAlpha"/>
<feOffset dy="1.54212"/>
<feGaussianBlur stdDeviation="1.54212"/>
<feComposite in2="hardAlpha" operator="out"/>
<feColorMatrix type="matrix" values="0 0 0 0 0.298039 0 0 0 0 0.454902 0 0 0 0 1 0 0 0 0.25 0"/>
<feBlend mode="normal" in2="BackgroundImageFix" result="effect1_dropShadow_4930_2853"/>
<feBlend mode="normal" in="SourceGraphic" in2="effect1_dropShadow_4930_2853" result="shape"/>
</filter>
<filter id="filter5_d_4930_2853" x="80.5779" y="82.5702" width="12.337" height="12.337" filterUnits="userSpaceOnUse" color-interpolation-filters="sRGB">
<feFlood flood-opacity="0" result="BackgroundImageFix"/>
<feColorMatrix in="SourceAlpha" type="matrix" values="0 0 0 0 0 0 0 0 0 0 0 0 0 0 0 0 0 0 127 0" result="hardAlpha"/>
<feOffset dy="1.54212"/>
<feGaussianBlur stdDeviation="1.54212"/>
<feComposite in2="hardAlpha" operator="out"/>
<feColorMatrix type="matrix" values="0 0 0 0 0.298039 0 0 0 0 0.454902 0 0 0 0 1 0 0 0 0.25 0"/>
<feBlend mode="normal" in2="BackgroundImageFix" result="effect1_dropShadow_4930_2853"/>
<feBlend mode="normal" in="SourceGraphic" in2="effect1_dropShadow_4930_2853" result="shape"/>
</filter>
<filter id="filter6_d_4930_2853" x="108.336" y="82.5702" width="12.337" height="12.337" filterUnits="userSpaceOnUse" color-interpolation-filters="sRGB">
<feFlood flood-opacity="0" result="BackgroundImageFix"/>
<feColorMatrix in="SourceAlpha" type="matrix" values="0 0 0 0 0 0 0 0 0 0 0 0 0 0 0 0 0 0 127 0" result="hardAlpha"/>
<feOffset dy="1.54212"/>
<feGaussianBlur stdDeviation="1.54212"/>
<feComposite in2="hardAlpha" operator="out"/>
<feColorMatrix type="matrix" values="0 0 0 0 0.298039 0 0 0 0 0.454902 0 0 0 0 1 0 0 0 0.25 0"/>
<feBlend mode="normal" in2="BackgroundImageFix" result="effect1_dropShadow_4930_2853"/>
<feBlend mode="normal" in="SourceGraphic" in2="effect1_dropShadow_4930_2853" result="shape"/>
</filter>
<filter id="filter7_d_4930_2853" x="94.4568" y="82.5702" width="12.337" height="12.337" filterUnits="userSpaceOnUse" color-interpolation-filters="sRGB">
<feFlood flood-opacity="0" result="BackgroundImageFix"/>
<feColorMatrix in="SourceAlpha" type="matrix" values="0 0 0 0 0 0 0 0 0 0 0 0 0 0 0 0 0 0 127 0" result="hardAlpha"/>
<feOffset dy="1.54212"/>
<feGaussianBlur stdDeviation="1.54212"/>
<feComposite in2="hardAlpha" operator="out"/>
<feColorMatrix type="matrix" values="0 0 0 0 0.298039 0 0 0 0 0.454902 0 0 0 0 1 0 0 0 0.25 0"/>
<feBlend mode="normal" in2="BackgroundImageFix" result="effect1_dropShadow_4930_2853"/>
<feBlend mode="normal" in="SourceGraphic" in2="effect1_dropShadow_4930_2853" result="shape"/>
</filter>
<linearGradient id="paint0_linear_4930_2853" x1="29.9668" y1="32.1137" x2="101.147" y2="135.439" gradientUnits="userSpaceOnUse">
<stop stop-color="#FF62C0"/>
<stop offset="0.526042" stop-color="#BE35FF"/>
<stop offset="1" stop-color="#7926FF"/>
</linearGradient>
<linearGradient id="paint1_linear_4930_2853" x1="14.6661" y1="4.9195" x2="80.9285" y2="114.288" gradientUnits="userSpaceOnUse">
<stop stop-color="#D4B2FF" stop-opacity="0.1"/>
<stop offset="1" stop-color="#70A9FF" stop-opacity="0.8"/>
</linearGradient>
<linearGradient id="paint2_linear_4930_2853" x1="75.5658" y1="73.7027" x2="111.806" y2="102.232" gradientUnits="userSpaceOnUse">
<stop stop-color="#E4F9FF" stop-opacity="0.1"/>
<stop offset="1" stop-color="#E4F9FF"/>
</linearGradient>
<linearGradient id="paint3_linear_4930_2853" x1="92.1439" y1="75.6306" x2="112.192" y2="98.7625" gradientUnits="userSpaceOnUse">
<stop stop-color="#E4F9FF" stop-opacity="0.1"/>
<stop offset="1" stop-color="#E4F9FF" stop-opacity="0.8"/>
</linearGradient>
</defs>
</svg>
