<svg width="168" height="142" viewBox="0 0 168 142" fill="none" xmlns="http://www.w3.org/2000/svg">
<g filter="url(#filter0_dd_4930_2830)">
<path fill-rule="evenodd" clip-rule="evenodd" d="M85.6529 120.352C83.6448 122.51 82.3992 122.691 81.9854 122.691C81.5715 122.691 80.326 122.51 78.3179 120.352C76.4472 118.341 74.4303 115.12 72.5482 110.602H91.4223C89.5405 115.12 87.5234 118.341 85.6529 120.352ZM94.1945 102.544H69.7764C67.4204 94.226 65.8565 84.0028 65.5289 72.7258H98.4415C98.1143 84.0028 96.5501 94.226 94.1945 102.544ZM69.7764 34.0434C67.3644 42.5587 65.7826 53.0711 65.5076 64.667H98.4633C98.1885 53.0711 96.6065 42.5587 94.1945 34.0434H69.7764ZM72.5482 25.9845C74.4303 21.4666 76.4472 18.2456 78.3179 16.2351C80.326 14.0768 81.5715 13.8962 81.9854 13.8962C82.3992 13.8962 83.6448 14.0768 85.6529 16.2351C87.5234 18.2456 89.5405 21.4666 91.4223 25.9845H72.5482ZM102.543 34.0434C104.841 42.9314 106.27 53.3991 106.524 64.667H136.263C135.502 53.0978 131.123 42.5166 124.248 34.0434H102.543ZM116.179 25.9845H100.066C98.6083 21.964 96.945 18.431 95.1197 15.4925C102.946 17.4328 110.103 21.0674 116.179 25.9845ZM63.9046 25.9845H47.7917C53.8682 21.0674 61.0253 17.4328 68.851 15.4925C67.0253 18.431 65.3625 21.964 63.9046 25.9845ZM39.7221 34.0434H61.428C59.1299 42.9314 57.7005 53.3991 57.4466 64.667H27.7071C28.4686 53.0978 32.8469 42.5166 39.7221 34.0434ZM102.543 102.544C104.786 93.8682 106.201 83.6869 106.504 72.7258H136.204C135.297 83.9803 130.964 94.2671 124.248 102.544H102.543ZM57.4668 72.7258H27.7661C28.6737 83.9803 33.0069 94.2671 39.7221 102.544H61.428C59.1848 93.8682 57.7692 83.6868 57.4668 72.7258ZM100.066 110.602C98.6083 114.623 96.945 118.156 95.1197 121.094C102.946 119.154 110.103 115.52 116.179 110.602H100.066ZM47.7917 110.602C53.8682 115.52 61.0253 119.154 68.851 121.094C67.0253 118.156 65.3625 114.623 63.9046 110.602H47.7917ZM144.441 68.2935C144.441 33.7999 116.479 5.8374 81.9854 5.8374C47.4918 5.8374 19.5293 33.7999 19.5293 68.2935C19.5293 102.787 47.4918 130.75 81.9854 130.75C116.479 130.75 144.441 102.787 144.441 68.2935Z" fill="url(#paint0_linear_4930_2830)"/>
</g>
<g filter="url(#filter1_dd_4930_2830)">
<path d="M147.665 16.314H115.43C108.753 16.314 103.341 21.7261 103.341 28.4022C103.341 35.0784 108.753 40.4905 115.43 40.4905H147.665C154.341 40.4905 159.753 35.0784 159.753 28.4022C159.753 21.7261 154.341 16.314 147.665 16.314Z" fill="url(#paint1_linear_4930_2830)"/>
<path d="M147.665 16.7168H115.429C108.976 16.7168 103.744 21.9485 103.744 28.4021C103.744 34.8558 108.976 40.0875 115.429 40.0875H147.665C154.118 40.0875 159.35 34.8558 159.35 28.4021C159.35 21.9485 154.118 16.7168 147.665 16.7168Z" stroke="url(#paint2_linear_4930_2830)" stroke-width="0.805885"/>
</g>
<g filter="url(#filter2_d_4930_2830)">
<path d="M117.041 31.6258C118.822 31.6258 120.265 30.1826 120.265 28.4022C120.265 26.6219 118.822 25.1787 117.041 25.1787C115.261 25.1787 113.818 26.6219 113.818 28.4022C113.818 30.1826 115.261 31.6258 117.041 31.6258Z" fill="white"/>
</g>
<g filter="url(#filter3_d_4930_2830)">
<path d="M146.053 31.6258C147.833 31.6258 149.277 30.1826 149.277 28.4022C149.277 26.6219 147.833 25.1787 146.053 25.1787C144.273 25.1787 142.83 26.6219 142.83 28.4022C142.83 30.1826 144.273 31.6258 146.053 31.6258Z" fill="white"/>
</g>
<g filter="url(#filter4_d_4930_2830)">
<path d="M131.547 31.6258C133.328 31.6258 134.771 30.1826 134.771 28.4022C134.771 26.6219 133.328 25.1787 131.547 25.1787C129.767 25.1787 128.324 26.6219 128.324 28.4022C128.324 30.1826 129.767 31.6258 131.547 31.6258Z" fill="white"/>
</g>
<g filter="url(#filter5_dd_4930_2830)">
<path d="M44.5119 88.0376H12.2765C10.0511 88.0376 8.24707 89.8416 8.24707 92.067V124.302C8.24707 126.528 10.0511 128.332 12.2765 128.332H44.5119C46.7373 128.332 48.5413 126.528 48.5413 124.302V92.067C48.5413 89.8416 46.7373 88.0376 44.5119 88.0376Z" fill="url(#paint3_linear_4930_2830)"/>
<path d="M44.5118 88.4404H12.2764C10.2735 88.4404 8.6499 90.0641 8.6499 92.0669V124.302C8.6499 126.305 10.2735 127.929 12.2764 127.929H44.5118C46.5146 127.929 48.1382 126.305 48.1382 124.302V92.0669C48.1382 90.0641 46.5146 88.4404 44.5118 88.4404Z" stroke="url(#paint4_linear_4930_2830)" stroke-width="0.805885"/>
</g>
<g filter="url(#filter6_d_4930_2830)">
<path fill-rule="evenodd" clip-rule="evenodd" d="M32.9312 110.701C35.73 106.917 35.4147 101.552 31.9853 98.1229C28.2088 94.3457 22.0856 94.3457 18.309 98.1229C14.5324 101.899 14.5324 108.022 18.309 111.799C21.4527 114.943 26.2222 115.47 29.9109 113.38L36.0873 119.556C36.8742 120.343 38.1498 120.343 38.9366 119.556C39.7234 118.77 39.7234 117.494 38.9366 116.707L32.9312 110.701ZM29.7059 100.402C32.2237 102.92 32.2237 107.002 29.7059 109.52C27.1882 112.037 23.1061 112.037 20.5884 109.52C18.0706 107.002 18.0706 102.92 20.5884 100.402C23.1061 97.8844 27.1882 97.8844 29.7059 100.402Z" fill="white"/>
</g>
<defs>
<filter id="filter0_dd_4930_2830" x="11.4705" y="0.196211" width="141.03" height="141.03" filterUnits="userSpaceOnUse" color-interpolation-filters="sRGB">
<feFlood flood-opacity="0" result="BackgroundImageFix"/>
<feColorMatrix in="SourceAlpha" type="matrix" values="0 0 0 0 0 0 0 0 0 0 0 0 0 0 0 0 0 0 127 0" result="hardAlpha"/>
<feOffset dy="1.61177"/>
<feGaussianBlur stdDeviation="1.61177"/>
<feComposite in2="hardAlpha" operator="out"/>
<feColorMatrix type="matrix" values="0 0 0 0 0.298039 0 0 0 0 0.454902 0 0 0 0 1 0 0 0 0.25 0"/>
<feBlend mode="normal" in2="BackgroundImageFix" result="effect1_dropShadow_4930_2830"/>
<feColorMatrix in="SourceAlpha" type="matrix" values="0 0 0 0 0 0 0 0 0 0 0 0 0 0 0 0 0 0 127 0" result="hardAlpha"/>
<feOffset dy="2.41765"/>
<feGaussianBlur stdDeviation="4.02942"/>
<feComposite in2="hardAlpha" operator="out"/>
<feColorMatrix type="matrix" values="0 0 0 0 0.298039 0 0 0 0 0.454902 0 0 0 0 1 0 0 0 0.25 0"/>
<feBlend mode="normal" in2="effect1_dropShadow_4930_2830" result="effect2_dropShadow_4930_2830"/>
<feBlend mode="normal" in="SourceGraphic" in2="effect2_dropShadow_4930_2830" result="shape"/>
</filter>
<filter id="filter1_dd_4930_2830" x="95.2825" y="11.4787" width="72.5298" height="40.2944" filterUnits="userSpaceOnUse" color-interpolation-filters="sRGB">
<feFlood flood-opacity="0" result="BackgroundImageFix"/>
<feColorMatrix in="SourceAlpha" type="matrix" values="0 0 0 0 0 0 0 0 0 0 0 0 0 0 0 0 0 0 127 0" result="hardAlpha"/>
<feOffset dy="1.61177"/>
<feGaussianBlur stdDeviation="1.61177"/>
<feComposite in2="hardAlpha" operator="out"/>
<feColorMatrix type="matrix" values="0 0 0 0 0.298039 0 0 0 0 0.454902 0 0 0 0 1 0 0 0 0.25 0"/>
<feBlend mode="normal" in2="BackgroundImageFix" result="effect1_dropShadow_4930_2830"/>
<feColorMatrix in="SourceAlpha" type="matrix" values="0 0 0 0 0 0 0 0 0 0 0 0 0 0 0 0 0 0 127 0" result="hardAlpha"/>
<feOffset dy="3.22354"/>
<feGaussianBlur stdDeviation="4.02942"/>
<feComposite in2="hardAlpha" operator="out"/>
<feColorMatrix type="matrix" values="0 0 0 0 0.298039 0 0 0 0 0.454902 0 0 0 0 1 0 0 0 0.25 0"/>
<feBlend mode="normal" in2="effect1_dropShadow_4930_2830" result="effect2_dropShadow_4930_2830"/>
<feBlend mode="normal" in="SourceGraphic" in2="effect2_dropShadow_4930_2830" result="shape"/>
</filter>
<filter id="filter2_d_4930_2830" x="110.594" y="23.5669" width="12.8943" height="12.8943" filterUnits="userSpaceOnUse" color-interpolation-filters="sRGB">
<feFlood flood-opacity="0" result="BackgroundImageFix"/>
<feColorMatrix in="SourceAlpha" type="matrix" values="0 0 0 0 0 0 0 0 0 0 0 0 0 0 0 0 0 0 127 0" result="hardAlpha"/>
<feOffset dy="1.61177"/>
<feGaussianBlur stdDeviation="1.61177"/>
<feComposite in2="hardAlpha" operator="out"/>
<feColorMatrix type="matrix" values="0 0 0 0 0.298039 0 0 0 0 0.454902 0 0 0 0 1 0 0 0 0.25 0"/>
<feBlend mode="normal" in2="BackgroundImageFix" result="effect1_dropShadow_4930_2830"/>
<feBlend mode="normal" in="SourceGraphic" in2="effect1_dropShadow_4930_2830" result="shape"/>
</filter>
<filter id="filter3_d_4930_2830" x="139.606" y="23.5669" width="12.8943" height="12.8943" filterUnits="userSpaceOnUse" color-interpolation-filters="sRGB">
<feFlood flood-opacity="0" result="BackgroundImageFix"/>
<feColorMatrix in="SourceAlpha" type="matrix" values="0 0 0 0 0 0 0 0 0 0 0 0 0 0 0 0 0 0 127 0" result="hardAlpha"/>
<feOffset dy="1.61177"/>
<feGaussianBlur stdDeviation="1.61177"/>
<feComposite in2="hardAlpha" operator="out"/>
<feColorMatrix type="matrix" values="0 0 0 0 0.298039 0 0 0 0 0.454902 0 0 0 0 1 0 0 0 0.25 0"/>
<feBlend mode="normal" in2="BackgroundImageFix" result="effect1_dropShadow_4930_2830"/>
<feBlend mode="normal" in="SourceGraphic" in2="effect1_dropShadow_4930_2830" result="shape"/>
</filter>
<filter id="filter4_d_4930_2830" x="125.1" y="23.5669" width="12.8943" height="12.8943" filterUnits="userSpaceOnUse" color-interpolation-filters="sRGB">
<feFlood flood-opacity="0" result="BackgroundImageFix"/>
<feColorMatrix in="SourceAlpha" type="matrix" values="0 0 0 0 0 0 0 0 0 0 0 0 0 0 0 0 0 0 127 0" result="hardAlpha"/>
<feOffset dy="1.61177"/>
<feGaussianBlur stdDeviation="1.61177"/>
<feComposite in2="hardAlpha" operator="out"/>
<feColorMatrix type="matrix" values="0 0 0 0 0.298039 0 0 0 0 0.454902 0 0 0 0 1 0 0 0 0.25 0"/>
<feBlend mode="normal" in2="BackgroundImageFix" result="effect1_dropShadow_4930_2830"/>
<feBlend mode="normal" in="SourceGraphic" in2="effect1_dropShadow_4930_2830" result="shape"/>
</filter>
<filter id="filter5_dd_4930_2830" x="0.188225" y="83.2023" width="56.4121" height="56.4121" filterUnits="userSpaceOnUse" color-interpolation-filters="sRGB">
<feFlood flood-opacity="0" result="BackgroundImageFix"/>
<feColorMatrix in="SourceAlpha" type="matrix" values="0 0 0 0 0 0 0 0 0 0 0 0 0 0 0 0 0 0 127 0" result="hardAlpha"/>
<feOffset dy="1.61177"/>
<feGaussianBlur stdDeviation="1.61177"/>
<feComposite in2="hardAlpha" operator="out"/>
<feColorMatrix type="matrix" values="0 0 0 0 0.298039 0 0 0 0 0.454902 0 0 0 0 1 0 0 0 0.25 0"/>
<feBlend mode="normal" in2="BackgroundImageFix" result="effect1_dropShadow_4930_2830"/>
<feColorMatrix in="SourceAlpha" type="matrix" values="0 0 0 0 0 0 0 0 0 0 0 0 0 0 0 0 0 0 127 0" result="hardAlpha"/>
<feOffset dy="3.22354"/>
<feGaussianBlur stdDeviation="4.02942"/>
<feComposite in2="hardAlpha" operator="out"/>
<feColorMatrix type="matrix" values="0 0 0 0 0.298039 0 0 0 0 0.454902 0 0 0 0 1 0 0 0 0.25 0"/>
<feBlend mode="normal" in2="effect1_dropShadow_4930_2830" result="effect2_dropShadow_4930_2830"/>
<feBlend mode="normal" in="SourceGraphic" in2="effect2_dropShadow_4930_2830" result="shape"/>
</filter>
<filter id="filter6_d_4930_2830" x="12.253" y="93.6783" width="30.4974" height="31.303" filterUnits="userSpaceOnUse" color-interpolation-filters="sRGB">
<feFlood flood-opacity="0" result="BackgroundImageFix"/>
<feColorMatrix in="SourceAlpha" type="matrix" values="0 0 0 0 0 0 0 0 0 0 0 0 0 0 0 0 0 0 127 0" result="hardAlpha"/>
<feOffset dy="1.61177"/>
<feGaussianBlur stdDeviation="1.61177"/>
<feComposite in2="hardAlpha" operator="out"/>
<feColorMatrix type="matrix" values="0 0 0 0 0.298039 0 0 0 0 0.454902 0 0 0 0 1 0 0 0 0.25 0"/>
<feBlend mode="normal" in2="BackgroundImageFix" result="effect1_dropShadow_4930_2830"/>
<feBlend mode="normal" in="SourceGraphic" in2="effect1_dropShadow_4930_2830" result="shape"/>
</filter>
<linearGradient id="paint0_linear_4930_2830" x1="46.5264" y1="20.3433" x2="109.385" y2="127.123" gradientUnits="userSpaceOnUse">
<stop stop-color="#E4F9FF"/>
<stop offset="0.505208" stop-color="#70A9FF"/>
<stop offset="1" stop-color="#4C74FF"/>
</linearGradient>
<linearGradient id="paint1_linear_4930_2830" x1="105.356" y1="14.2993" x2="143.233" y2="44.117" gradientUnits="userSpaceOnUse">
<stop stop-color="#E4F9FF" stop-opacity="0.1"/>
<stop offset="1" stop-color="#E4F9FF"/>
</linearGradient>
<linearGradient id="paint2_linear_4930_2830" x1="122.682" y1="16.3139" x2="143.635" y2="40.4904" gradientUnits="userSpaceOnUse">
<stop stop-color="#E4F9FF" stop-opacity="0.1"/>
<stop offset="1" stop-color="#E4F9FF" stop-opacity="0.8"/>
</linearGradient>
<linearGradient id="paint3_linear_4930_2830" x1="13.8883" y1="91.6641" x2="43.706" y2="125.108" gradientUnits="userSpaceOnUse">
<stop stop-color="#E4F9FF" stop-opacity="0.1"/>
<stop offset="1" stop-color="#E4F9FF" stop-opacity="0.8"/>
</linearGradient>
<linearGradient id="paint4_linear_4930_2830" x1="11.0676" y1="90.4551" x2="44.5118" y2="124.705" gradientUnits="userSpaceOnUse">
<stop stop-color="#E4F9FF" stop-opacity="0.1"/>
<stop offset="1" stop-color="#E4F9FF" stop-opacity="0.8"/>
</linearGradient>
</defs>
</svg>
