<svg width="94" height="117" viewBox="0 0 94 117" fill="none" xmlns="http://www.w3.org/2000/svg">
<g filter="url(#filter0_df_5007_312)">
<path d="M4.31445 110.717H33.4496" stroke="url(#paint0_linear_5007_312)" stroke-width="2.74213" stroke-linecap="round"/>
</g>
<g filter="url(#filter1_df_5007_312)">
<path fill-rule="evenodd" clip-rule="evenodd" d="M31.5195 93.0364C31.1638 95.8581 31.9533 106.114 32.3471 110.813C32.4453 111.984 33.6679 112.695 34.7392 112.211C38.6915 110.428 46.7955 106.74 48.7152 105.623C51.1117 104.228 54.3268 101.036 54.737 100.625C54.7598 100.601 54.7546 100.564 54.7272 100.547C54.7013 100.531 54.6956 100.496 54.715 100.472C55.2603 99.8088 55.7662 99.0931 56.2244 98.3274C60.4824 91.217 59.0274 82.5142 52.9747 78.8898C46.922 75.2653 38.5635 78.0911 34.3055 85.2021C33.9301 85.8287 33.599 86.4683 33.3116 87.1155C33.3087 87.1223 33.3006 87.1244 33.2945 87.121C33.2888 87.1175 33.282 87.1182 33.2787 87.1237C33.1869 87.2848 31.9679 89.4785 31.5195 93.0364Z" fill="url(#paint1_linear_5007_312)"/>
</g>
<g filter="url(#filter2_f_5007_312)">
<path d="M79.9785 5.15176C81.6203 1.74014 85.717 0.305439 89.1289 1.94725C92.5402 3.58905 93.975 7.68563 92.3331 11.0973L56.6601 85.2242C55.0183 88.6354 50.9217 90.0702 47.5102 88.4284C44.0985 86.7865 42.6639 82.6904 44.3056 79.2785L79.9785 5.15176Z" fill="url(#paint2_linear_5007_312)"/>
</g>
<defs>
<filter id="filter0_df_5007_312" x="0.201226" y="107.975" width="37.3617" height="8.22645" filterUnits="userSpaceOnUse" color-interpolation-filters="sRGB">
<feFlood flood-opacity="0" result="BackgroundImageFix"/>
<feColorMatrix in="SourceAlpha" type="matrix" values="0 0 0 0 0 0 0 0 0 0 0 0 0 0 0 0 0 0 127 0" result="hardAlpha"/>
<feOffset dy="1.37107"/>
<feGaussianBlur stdDeviation="1.37107"/>
<feComposite in2="hardAlpha" operator="out"/>
<feColorMatrix type="matrix" values="0 0 0 0 0.47451 0 0 0 0 0.14902 0 0 0 0 1 0 0 0 0.25 0"/>
<feBlend mode="normal" in2="BackgroundImageFix" result="effect1_dropShadow_5007_312"/>
<feBlend mode="normal" in="SourceGraphic" in2="effect1_dropShadow_5007_312" result="shape"/>
<feGaussianBlur stdDeviation="0.342767" result="effect2_foregroundBlur_5007_312"/>
</filter>
<filter id="filter1_df_5007_312" x="28.6876" y="75.9395" width="32.7201" height="40.5385" filterUnits="userSpaceOnUse" color-interpolation-filters="sRGB">
<feFlood flood-opacity="0" result="BackgroundImageFix"/>
<feColorMatrix in="SourceAlpha" type="matrix" values="0 0 0 0 0 0 0 0 0 0 0 0 0 0 0 0 0 0 127 0" result="hardAlpha"/>
<feOffset dy="1.37107"/>
<feGaussianBlur stdDeviation="1.37107"/>
<feComposite in2="hardAlpha" operator="out"/>
<feColorMatrix type="matrix" values="0 0 0 0 0.47451 0 0 0 0 0.14902 0 0 0 0 1 0 0 0 0.25 0"/>
<feBlend mode="normal" in2="BackgroundImageFix" result="effect1_dropShadow_5007_312"/>
<feBlend mode="normal" in="SourceGraphic" in2="effect1_dropShadow_5007_312" result="shape"/>
<feGaussianBlur stdDeviation="0.342767" result="effect2_foregroundBlur_5007_312"/>
</filter>
<filter id="filter2_f_5007_312" x="42.9404" y="0.582045" width="50.7578" height="89.2114" filterUnits="userSpaceOnUse" color-interpolation-filters="sRGB">
<feFlood flood-opacity="0" result="BackgroundImageFix"/>
<feBlend mode="normal" in="SourceGraphic" in2="BackgroundImageFix" result="shape"/>
<feGaussianBlur stdDeviation="0.342767" result="effect1_foregroundBlur_5007_312"/>
</filter>
<linearGradient id="paint0_linear_5007_312" x1="-nan" y1="-nan" x2="-nan" y2="-nan" gradientUnits="userSpaceOnUse">
<stop stop-color="#FF62C0"/>
<stop offset="0.520833" stop-color="#BE35FF"/>
<stop offset="1" stop-color="#7926FF"/>
</linearGradient>
<linearGradient id="paint1_linear_5007_312" x1="26.5993" y1="122.935" x2="52.9748" y2="78.8898" gradientUnits="userSpaceOnUse">
<stop stop-color="#FF62C0"/>
<stop offset="0.546875" stop-color="#BE35FF"/>
<stop offset="1" stop-color="#7926FF"/>
</linearGradient>
<linearGradient id="paint2_linear_5007_312" x1="100.1" y1="-22.203" x2="46.1382" y2="90.6303" gradientUnits="userSpaceOnUse">
<stop stop-color="#D4B2FF" stop-opacity="0.1"/>
<stop offset="1" stop-color="#70A9FF" stop-opacity="0.8"/>
</linearGradient>
</defs>
</svg>
