<svg width="130" height="129" viewBox="0 0 130 129" fill="none" xmlns="http://www.w3.org/2000/svg">
<g filter="url(#filter0_df_4930_240)">
<path d="M123.462 32.2581H114.926C114.287 30.003 113.347 27.8983 112.182 25.9438L118.273 19.8552C119.439 18.6901 119.439 16.8108 118.273 15.6833L113.159 10.5718C112.031 9.36917 110.151 9.36917 109.023 10.5343L102.856 16.6981C100.9 15.5706 98.8323 14.6685 96.6131 14.0672V5.38519C96.6131 3.76906 95.2973 2.41602 93.6426 2.41602H86.3856C84.7682 2.41602 83.4147 3.73147 83.4147 5.38519V13.9168C81.1209 14.4806 78.9023 15.345 76.9093 16.435L70.968 10.5343C69.8023 9.36917 67.9221 9.36917 66.794 10.5343L61.68 15.6457C60.5143 16.8108 60.5143 18.6901 61.68 19.8176L67.3205 25.4553C66.0043 27.5224 64.9891 29.815 64.3122 32.2205H56.5283C54.9113 32.2205 53.5576 33.5359 53.5576 35.1897V42.4434C53.5576 44.0596 54.8737 45.4126 56.5283 45.4126H64.0114C64.613 48.0059 65.5907 50.4113 66.9068 52.6288L61.68 57.853C60.5143 59.0182 60.5143 60.8973 61.68 62.0249L66.794 67.1363C67.9597 68.3014 69.8399 68.3014 70.968 67.1363L76.1197 61.9873C78.3382 63.3027 80.8201 64.3176 83.4147 64.9565V72.2854C83.4147 73.9015 84.7309 75.2546 86.3856 75.2546H93.6054C95.2221 75.2546 96.5759 73.9391 96.5759 72.2854V64.7685C99.0952 64.092 101.427 63.0396 103.57 61.6866L109.023 67.1363C110.188 68.3014 112.068 68.3014 113.197 67.1363L118.31 62.0249C119.477 60.8598 119.477 58.9806 118.31 57.853L112.633 52.1778C113.798 50.073 114.701 47.818 115.227 45.4126H123.425C125.042 45.4126 126.395 44.0971 126.395 42.4434V35.2272C126.433 33.5735 125.117 32.2581 123.462 32.2581ZM89.619 49.51C82.3618 49.51 79.6163 42.9168 79.6163 39.4632C79.6163 36.0096 82.3618 29.7305 89.619 29.7305C96.8768 29.7305 99.7096 36.6376 99.7096 39.4632C99.7096 43.2307 96.8768 49.51 89.619 49.51Z" fill="url(#paint0_linear_4930_240)"/>
</g>
<g filter="url(#filter1_dd_4930_240)">
<path d="M96.5702 63.0029H85.8075C85.0016 60.1596 83.8156 57.5057 82.346 55.0415L90.0266 47.3645C91.4969 45.8954 91.4969 43.526 90.0266 42.1043L83.5788 35.6594C82.1564 34.143 79.7858 34.143 78.3633 35.612L70.5877 43.3838C68.1222 41.9621 65.5145 40.8248 62.7171 40.0666V29.1197C62.7171 27.082 61.0576 25.376 58.9714 25.376H49.8208C47.782 25.376 46.0751 27.0346 46.0751 29.1197V39.877C43.1829 40.5878 40.3855 41.6778 37.8727 43.0521L30.3814 35.612C28.9116 34.143 26.541 34.143 25.1186 35.612L18.6704 42.0569C17.2006 43.526 17.2006 45.8954 18.6704 47.3171L25.7824 54.4254C24.1229 57.0319 22.8428 59.9226 21.9893 62.9555H12.1748C10.1361 62.9555 8.4292 64.6141 8.4292 66.6992V75.8453C8.4292 77.883 10.0887 79.589 12.1748 79.589H21.61C22.3686 82.8591 23.6013 85.8922 25.2609 88.6878L18.6704 95.2749C17.2006 96.7435 17.2006 99.1132 18.6704 100.535L25.1186 106.98C26.5884 108.449 28.959 108.449 30.3814 106.98L36.877 100.488C39.6743 102.146 42.8036 103.426 46.0751 104.232V113.472C46.0751 115.51 47.7346 117.216 49.8208 117.216H58.9241C60.9628 117.216 62.6696 115.557 62.6696 113.472V103.994C65.8464 103.141 68.7859 101.815 71.4885 100.108L78.3633 106.98C79.8332 108.449 82.2038 108.449 83.6262 106.98L90.0741 100.535C91.5444 99.0657 91.5444 96.6968 90.0741 95.2749L82.915 88.1193C84.3848 85.4654 85.5225 82.6216 86.1868 79.589H96.5227C98.5614 79.589 100.268 77.9304 100.268 75.8453V66.7466C100.316 64.6615 98.6564 63.0029 96.5702 63.0029ZM53.8983 84.7553C44.7475 84.7553 41.2857 76.4422 41.2857 72.0877C41.2857 67.7332 44.7475 59.816 53.8983 59.816C63.049 59.816 66.6209 68.5249 66.6209 72.0877C66.6209 76.838 63.049 84.7553 53.8983 84.7553Z" fill="url(#paint1_linear_4930_240)"/>
<path d="M96.5702 63.0029H85.8075C85.0016 60.1596 83.8156 57.5057 82.346 55.0415L90.0266 47.3645C91.4969 45.8954 91.4969 43.526 90.0266 42.1043L83.5788 35.6594C82.1564 34.143 79.7858 34.143 78.3633 35.612L70.5877 43.3838C68.1222 41.9621 65.5145 40.8248 62.7171 40.0666V29.1197C62.7171 27.082 61.0576 25.376 58.9714 25.376H49.8208C47.782 25.376 46.0751 27.0346 46.0751 29.1197V39.877C43.1829 40.5878 40.3855 41.6778 37.8727 43.0521L30.3814 35.612C28.9116 34.143 26.541 34.143 25.1186 35.612L18.6704 42.0569C17.2006 43.526 17.2006 45.8954 18.6704 47.3171L25.7824 54.4254C24.1229 57.0319 22.8428 59.9226 21.9893 62.9555H12.1748C10.1361 62.9555 8.4292 64.6141 8.4292 66.6992V75.8453C8.4292 77.883 10.0887 79.589 12.1748 79.589H21.61C22.3686 82.8591 23.6013 85.8922 25.2609 88.6878L18.6704 95.2749C17.2006 96.7435 17.2006 99.1132 18.6704 100.535L25.1186 106.98C26.5884 108.449 28.959 108.449 30.3814 106.98L36.877 100.488C39.6743 102.146 42.8036 103.426 46.0751 104.232V113.472C46.0751 115.51 47.7346 117.216 49.8208 117.216H58.9241C60.9628 117.216 62.6696 115.557 62.6696 113.472V103.994C65.8464 103.141 68.7859 101.815 71.4885 100.108L78.3633 106.98C79.8332 108.449 82.2038 108.449 83.6262 106.98L90.0741 100.535C91.5444 99.0657 91.5444 96.6968 90.0741 95.2749L82.915 88.1193C84.3848 85.4654 85.5225 82.6216 86.1868 79.589H96.5227C98.5614 79.589 100.268 77.9304 100.268 75.8453V66.7466C100.316 64.6615 98.6564 63.0029 96.5702 63.0029ZM53.8983 84.7553C44.7475 84.7553 41.2857 76.4422 41.2857 72.0877C41.2857 67.7332 44.7475 59.816 53.8983 59.816C63.049 59.816 66.6209 68.5249 66.6209 72.0877C66.6209 76.838 63.049 84.7553 53.8983 84.7553Z" stroke="url(#paint2_linear_4930_240)" stroke-width="0.791724" stroke-miterlimit="10"/>
</g>
<defs>
<filter id="filter0_df_4930_240" x="50.3907" y="0.832568" width="79.1722" height="79.1722" filterUnits="userSpaceOnUse" color-interpolation-filters="sRGB">
<feFlood flood-opacity="0" result="BackgroundImageFix"/>
<feColorMatrix in="SourceAlpha" type="matrix" values="0 0 0 0 0 0 0 0 0 0 0 0 0 0 0 0 0 0 127 0" result="hardAlpha"/>
<feOffset dy="1.58345"/>
<feGaussianBlur stdDeviation="1.58345"/>
<feComposite in2="hardAlpha" operator="out"/>
<feColorMatrix type="matrix" values="0 0 0 0 0.298039 0 0 0 0 0.454902 0 0 0 0 1 0 0 0 0.25 0"/>
<feBlend mode="normal" in2="BackgroundImageFix" result="effect1_dropShadow_4930_240"/>
<feBlend mode="normal" in="SourceGraphic" in2="effect1_dropShadow_4930_240" result="shape"/>
<feGaussianBlur stdDeviation="0.395862" result="effect2_foregroundBlur_4930_240"/>
</filter>
<filter id="filter1_dd_4930_240" x="0.115966" y="20.2296" width="108.466" height="108.466" filterUnits="userSpaceOnUse" color-interpolation-filters="sRGB">
<feFlood flood-opacity="0" result="BackgroundImageFix"/>
<feColorMatrix in="SourceAlpha" type="matrix" values="0 0 0 0 0 0 0 0 0 0 0 0 0 0 0 0 0 0 127 0" result="hardAlpha"/>
<feOffset dy="1.58345"/>
<feGaussianBlur stdDeviation="1.58345"/>
<feComposite in2="hardAlpha" operator="out"/>
<feColorMatrix type="matrix" values="0 0 0 0 0.298039 0 0 0 0 0.454902 0 0 0 0 1 0 0 0 0.25 0"/>
<feBlend mode="normal" in2="BackgroundImageFix" result="effect1_dropShadow_4930_240"/>
<feColorMatrix in="SourceAlpha" type="matrix" values="0 0 0 0 0 0 0 0 0 0 0 0 0 0 0 0 0 0 127 0" result="hardAlpha"/>
<feOffset dy="3.16689"/>
<feGaussianBlur stdDeviation="3.95862"/>
<feComposite in2="hardAlpha" operator="out"/>
<feColorMatrix type="matrix" values="0 0 0 0 0.298039 0 0 0 0 0.454902 0 0 0 0 1 0 0 0 0.25 0"/>
<feBlend mode="normal" in2="effect1_dropShadow_4930_240" result="effect2_dropShadow_4930_240"/>
<feBlend mode="normal" in="SourceGraphic" in2="effect2_dropShadow_4930_240" result="shape"/>
</filter>
<linearGradient id="paint0_linear_4930_240" x1="71.4967" y1="5.90242" x2="102.618" y2="60.9512" gradientUnits="userSpaceOnUse">
<stop stop-color="#D4B2FF"/>
<stop offset="1" stop-color="#70A9FF"/>
</linearGradient>
<linearGradient id="paint1_linear_4930_240" x1="31.0481" y1="29.7719" x2="70.287" y2="99.1813" gradientUnits="userSpaceOnUse">
<stop stop-color="#E4F9FF" stop-opacity="0.1"/>
<stop offset="1" stop-color="#E4F9FF" stop-opacity="0.8"/>
</linearGradient>
<linearGradient id="paint2_linear_4930_240" x1="28.2207" y1="22.864" x2="72.4823" y2="100.754" gradientUnits="userSpaceOnUse">
<stop stop-color="#E4F9FF" stop-opacity="0.1"/>
<stop offset="1" stop-color="#E4F9FF" stop-opacity="0.8"/>
</linearGradient>
</defs>
</svg>
