<svg width="38" height="38" viewBox="0 0 38 38" fill="none" xmlns="http://www.w3.org/2000/svg">
<path d="M19 3.16675C14.6348 3.16675 11.0833 6.71816 11.0833 11.0834C11.0833 15.4487 14.6348 19.0001 19 19.0001C23.3652 19.0001 26.9167 15.4487 26.9167 11.0834C26.9167 6.71816 23.3652 3.16675 19 3.16675ZM19 15.8334C16.3812 15.8334 14.25 13.7022 14.25 11.0834C14.25 8.46458 16.3812 6.33341 19 6.33341C21.6188 6.33341 23.75 8.46458 23.75 11.0834C23.75 13.7022 21.6188 15.8334 19 15.8334ZM33.25 33.2501V31.6667C33.25 25.5567 28.2768 20.5834 22.1667 20.5834H15.8333C9.72167 20.5834 4.75 25.5567 4.75 31.6667V33.2501H7.91667V31.6667C7.91667 27.3015 11.4681 23.7501 15.8333 23.7501H22.1667C26.5319 23.7501 30.0833 27.3015 30.0833 31.6667V33.2501H33.25Z" fill="white"/>
</svg>
